<?xml version="1.0" encoding="UTF-8"?>
<svg version="1.1" xmlns="http://www.w3.org/2000/svg" width="683" height="720">
<path d="M0 0 C225.39 0 450.78 0 683 0 C683 237.6 683 475.2 683 720 C457.61 720 232.22 720 0 720 C0 482.4 0 244.8 0 0 Z " fill="#0F4F44" transform="translate(0,0)"/>
<path d="M0 0 C0.86602341 0.00359528 1.73204681 0.00719055 2.62431335 0.01089478 C3.98515549 0.01067574 3.98515549 0.01067574 5.37348938 0.01045227 C8.38737843 0.01115176 11.40120651 0.01894582 14.41508484 0.02676392 C16.49873826 0.02862797 18.58239212 0.03005193 20.66604614 0.03105164 C26.16191305 0.03487783 31.65775372 0.04470897 37.15361023 0.05575562 C42.75704086 0.06596757 48.36047572 0.07054879 53.96391296 0.07559204 C64.96717973 0.08633115 75.97042698 0.10340877 86.97367859 0.12442017 C100.85893826 32.10571742 100.85893826 32.10571742 106.91117859 46.43692017 C107.49056306 47.8063574 108.07007608 49.17574025 108.64970398 50.54507446 C109.54307928 52.65567876 110.43636029 54.76632235 111.32913208 56.87718201 C113.36106011 61.68083729 115.39990199 66.48151286 117.44242859 71.28067017 C124.10440963 86.93899697 130.69874577 102.62380845 137.22953796 118.33731079 C140.43953915 126.05808577 143.66203556 133.77323313 146.91508484 141.47598267 C147.24357422 142.25382614 147.5720636 143.03166962 147.9105072 143.83308411 C148.57677519 145.41050566 149.24307573 146.98791346 149.90940857 148.56530762 C155.06414038 160.76873395 160.1710956 172.9892209 165.17997742 185.25332642 C166.52741177 188.55220218 167.8827226 191.84764228 169.24589539 195.14004517 C172.06109143 201.94798595 174.86209054 208.75067361 177.44248962 215.65176392 C178.44161935 218.30965663 179.47557571 220.95316913 180.51554871 223.5953064 C181.20054938 225.37676868 181.83468125 227.17753381 182.46684265 228.97842407 C183.71794943 232.12155381 184.7792354 234.54742191 186.97367859 237.12442017 C190.97645343 238.70152031 194.70953267 238.94315657 198.97367859 239.12442017 C200.68785015 239.42629719 202.39808859 239.75360005 204.09867859 240.12442017 C204.80250671 240.26879517 205.50633484 240.41317017 206.23149109 240.56192017 C207.97367859 241.12442017 207.97367859 241.12442017 209.97367859 243.12442017 C208.98367859 243.12442017 207.99367859 243.12442017 206.97367859 243.12442017 C206.97367859 243.78442017 206.97367859 244.44442017 206.97367859 245.12442017 C208.19055359 245.31004517 209.40742859 245.49567017 210.66117859 245.68692017 C217.26547252 247.16737397 223.50619626 250.1563305 228.97367859 254.12442017 C230.63651397 256.8506138 231.77517439 259.13550832 232.40336609 262.26504517 C233.24035376 264.99385428 234.9142004 266.08240755 237.09867859 267.87442017 C245.00003766 274.63808355 251.59850583 282.76463296 257.48930359 291.32754517 C258.9408297 293.40791439 258.9408297 293.40791439 261.97367859 294.12442017 C263.10649109 296.92520142 263.10649109 296.92520142 264.09867859 300.43692017 C264.59754578 302.16361938 264.59754578 302.16361938 265.10649109 303.92520142 C265.39266296 304.9809436 265.67883484 306.03668579 265.97367859 307.12442017 C266.15309998 307.71497192 266.33252136 308.30552368 266.51737976 308.91397095 C267.51016648 313.72332943 267.15956784 318.74715957 267.15898132 323.63931274 C267.16114547 325.65605498 267.17925603 327.67222933 267.19828796 329.68887329 C267.20975168 337.39631415 266.71200786 344.60676162 264.97367859 352.12442017 C263.65367859 352.45442017 262.33367859 352.78442017 260.97367859 353.12442017 C260.92356628 352.54063599 260.87345398 351.95685181 260.82182312 351.3553772 C260.58651977 348.65285682 260.34263735 345.95117243 260.09867859 343.24942017 C260.02004578 342.33160767 259.94141296 341.41379517 259.86039734 340.46817017 C259.43921411 335.86755336 258.87435923 331.41978259 257.87992859 326.90567017 C256.95366854 322.54074536 256.91343365 318.93891857 257.34867859 314.49942017 C257.45953796 313.29027954 257.57039734 312.08113892 257.68461609 310.83535767 C257.78000671 309.94074829 257.87539734 309.04613892 257.97367859 308.12442017 C257.82672546 309.17242798 257.82672546 309.17242798 257.67680359 310.24160767 C257.45250671 311.60672485 257.45250671 311.60672485 257.22367859 312.99942017 C257.08445984 313.90434204 256.94524109 314.80926392 256.80180359 315.74160767 C255.97367859 318.12442017 255.97367859 318.12442017 254.29008484 319.37832642 C251.42426786 320.30138045 248.64359193 320.76987294 245.66117859 321.18692017 C244.51649109 321.3506311 243.37180359 321.51434204 242.19242859 321.68301392 C241.13024109 321.82867798 240.06805359 321.97434204 238.97367859 322.12442017 C237.53608751 322.33212407 236.09856324 322.54029248 234.66117859 322.74942017 C233.77430359 322.87317017 232.88742859 322.99692017 231.97367859 323.12442017 C231.87055359 324.23817017 231.76742859 325.35192017 231.66117859 326.49942017 C231.13837461 330.68185196 230.06337852 334.54053047 228.78617859 338.55020142 C228.25116331 340.24527387 227.75007758 341.95148982 227.28617859 343.66738892 C226.59836246 346.1880787 225.8116388 348.64988039 224.97367859 351.12442017 C224.73004578 351.94555298 224.48641296 352.76668579 224.23539734 353.61270142 C223.11668972 356.42558355 222.19133438 358.03897077 219.97367859 360.12442017 C215.35796577 361.92679475 210.77226407 362.93269279 205.90190125 363.78213501 C203.40516736 364.22533847 200.94527239 364.80937462 198.47367859 365.37442017 C196.97632955 365.63983655 195.47637121 365.89115019 193.97367859 366.12442017 C193.28016296 366.25590454 192.58664734 366.38738892 191.87211609 366.52285767 C188.69187305 366.87894665 186.51644907 366.52809917 183.94633484 364.61660767 C181.82693593 362.54195614 179.89366888 360.3843685 177.97367859 358.12442017 C177.36395203 357.4425061 176.75422546 356.76059204 176.12602234 356.05801392 C171.51977162 350.88484003 171.51977162 350.88484003 169.52055359 348.10098267 C166.88279625 344.52651234 166.88279625 344.52651234 163.04252625 342.50332642 C156.79464551 341.76711568 152.08530386 342.92574573 146.22367859 345.06192017 C135.74035995 348.76143246 135.74035995 348.76143246 131.97367859 348.12442017 C125.04667828 343.75532594 120.42057981 334.82647088 115.97367859 328.12442017 C114.98367859 326.63942017 114.98367859 326.63942017 113.97367859 325.12442017 C113.29918337 318.81016973 115.14160788 313.57001744 117.16117859 307.68692017 C117.45315125 306.78393188 117.7451239 305.8809436 118.04594421 304.95059204 C120.00432699 299.13440577 122.46707134 294.16176719 125.97367859 289.12442017 C125.06617859 288.42317017 124.15867859 287.72192017 123.22367859 286.99942017 C120.11308648 284.39125149 117.89704219 281.74034374 115.97367859 278.12442017 C116.19715585 273.94092576 119.12034228 271.3369667 121.84867859 268.43692017 C122.33973083 267.9109021 122.83078308 267.38488403 123.3367157 266.84292603 C135.45630028 254.10895791 148.22178563 247.59285926 164.97367859 243.12442017 C165.96367859 243.12442017 166.95367859 243.12442017 167.97367859 243.12442017 C167.97367859 242.13442017 167.97367859 241.14442017 167.97367859 240.12442017 C150.99012186 243.39312624 136.72162774 250.33202427 123.97367859 262.12442017 C123.3098114 262.7315686 122.64594421 263.33871704 121.96195984 263.96426392 C117.77474409 267.96982172 114.32081565 272.40409867 110.97367859 277.12442017 C109.08597519 274.29286507 108.00209512 271.85370628 106.79399109 268.69082642 C106.36650574 267.5826355 105.93902039 266.47444458 105.49858093 265.33267212 C105.03661316 264.12957397 104.57464539 262.92647583 104.09867859 261.68692017 C100.35515201 252.02526573 96.47003953 242.44515141 92.34867859 232.93692017 C87.70981098 222.23278493 83.19999358 211.48159902 78.7492218 200.69796753 C72.80005532 186.28467546 66.79536295 171.89754493 60.66117859 157.56192017 C60.34853058 156.82907806 60.03588257 156.09623596 59.71376038 155.34118652 C55.93393171 146.40395992 55.93393171 146.40395992 51.74320984 137.65567017 C49.8619181 133.90139262 48.38833154 130.13282926 46.97367859 126.18692017 C45.06445482 120.95627819 43.06336007 115.84250095 40.63774109 110.82363892 C39.97367859 109.12442017 39.97367859 109.12442017 39.97367859 106.12442017 C39.31367859 106.12442017 38.65367859 106.12442017 37.97367859 106.12442017 C37.85178162 106.83968872 37.72988464 107.55495728 37.60429382 108.29190063 C36.95815406 111.19415132 36.03099606 113.70342042 34.88383484 116.44473267 C34.43798035 117.51658813 33.99212585 118.5884436 33.53276062 119.69277954 C33.03888855 120.86647095 32.54501648 122.04016235 32.03617859 123.24942017 C31.51351184 124.49991722 30.99122514 125.75057318 30.46928406 127.00137329 C29.30254868 129.79508502 28.1328127 132.58751938 26.96147156 135.37930298 C25.15774886 139.68089902 23.36402622 143.98661467 21.57199097 148.29309082 C19.97885157 152.12090556 18.38323048 155.94768286 16.78712463 159.77426147 C16.00274158 161.65538699 15.21897619 163.5367702 14.43586731 165.41842651 C13.31811858 168.10270864 12.19706176 170.78558766 11.07524109 173.46817017 C10.75052322 174.24969452 10.42580536 175.03121887 10.09124756 175.83642578 C7.21832792 182.69103704 4.09540757 189.36067405 0.97367859 196.12442017 C-29.05632141 196.12442017 -59.08632141 196.12442017 -90.02632141 196.12442017 C-89.2374905 191.39143469 -88.48028498 188.41724045 -86.61225891 184.17129517 C-86.10597961 183.01170288 -85.59970032 181.8521106 -85.07807922 180.65737915 C-84.51928674 179.39633663 -83.9603637 178.13535196 -83.40132141 176.87442017 C-82.82098661 175.55184019 -82.24124652 174.22899912 -81.6620636 172.90591431 C-80.11299344 169.3724335 -78.55525994 165.84284421 -76.9947052 162.31442261 C-75.69988581 159.3861852 -74.40782348 156.4567344 -73.11561584 153.52734375 C-70.85844721 148.41048545 -68.60021134 143.29410188 -66.33882141 138.17910767 C-62.27263954 128.97802271 -58.26779843 119.75335738 -54.32319641 110.49942017 C-51.45754005 103.7803049 -48.55507198 97.07713341 -45.65132141 90.37442017 C-45.3723703 89.73030182 -45.09341919 89.08618347 -44.80601501 88.42254639 C-41.10107131 79.87046304 -37.35944956 71.33527083 -33.58882141 62.81192017 C-28.62705684 51.58870629 -23.82756104 40.2989662 -19.05976868 28.99234009 C-16.12826539 22.04425135 -13.17247741 15.10726173 -10.16694641 8.19082642 C-9.8675415 7.49762802 -9.5681366 6.80442963 -9.25965881 6.09022522 C-6.72941998 0.29334365 -6.39949094 0.01122242 0 0 Z " fill="#CF5051" transform="translate(297.0263214111328,163.87557983398438)"/>
<path d="M0 0 C1.16238095 0.00460896 2.32476191 0.00921793 3.52236652 0.01396656 C4.17013107 0.00969444 4.81789562 0.00542231 5.48528939 0.00102073 C7.66015691 -0.00722846 9.83310406 0.02030256 12.00779438 0.04761219 C13.56486687 0.04902227 15.1219427 0.04823147 16.67901325 0.04539967 C20.91039566 0.04396251 25.14107229 0.07340014 29.37229037 0.10826945 C33.79252898 0.13948338 38.212783 0.14245976 42.63311481 0.14839649 C51.00550597 0.16394959 59.37757148 0.20499775 67.7498191 0.25514394 C77.28049566 0.31099192 86.81118761 0.33851244 96.34198701 0.36362112 C115.94927723 0.41591243 135.5562741 0.50388309 155.16331196 0.61523914 C163.88013101 17.82747168 163.88013101 17.82747168 166.80393696 25.06836414 C167.09342716 25.76967457 167.38291737 26.47098499 167.68118 27.19354725 C168.5972797 29.41527419 169.50544588 31.64013688 170.41331196 33.86523914 C171.70860954 37.01746999 173.00791293 40.16804134 174.30784321 43.31836414 C174.62963047 44.0995763 174.95141773 44.88078846 175.28295612 45.68567371 C177.40552846 50.82502224 179.58025491 55.93904314 181.80003071 61.03711414 C182.08288929 61.68819141 182.36574787 62.33926868 182.65717793 63.01007557 C183.98185565 66.05612284 185.31446114 69.09812649 186.65842915 72.13574696 C187.12281391 73.20147938 187.58719868 74.2672118 188.06565571 75.36523914 C188.47291889 76.28820789 188.88018208 77.21117664 189.29978657 78.16211414 C190.16331196 80.61523914 190.16331196 80.61523914 190.16331196 84.61523914 C144.95331196 84.61523914 99.74331196 84.61523914 53.16331196 84.61523914 C52.83331196 85.93523914 52.50331196 87.25523914 52.16331196 88.61523914 C51.43635306 90.42998841 50.673894 92.23065205 49.88987446 94.02148914 C49.4041396 95.13620594 48.91840473 96.25092274 48.41795063 97.39941883 C47.8747392 98.63802624 47.33152626 99.87663299 46.78831196 101.11523914 C45.91940465 103.10591056 45.05168452 105.09709677 44.18404865 107.08832264 C43.55268027 108.53723996 42.92096529 109.98600629 42.28893757 111.43463612 C39.6287966 117.535092 36.9890125 123.6442081 34.35471821 129.75586414 C33.7349712 131.19337025 33.7349712 131.19337025 33.10270405 132.65991688 C31.45014483 136.49348814 29.79781748 140.32715849 28.14677143 144.16138172 C26.98004012 146.87036207 25.81200566 149.57877764 24.64378071 152.28711414 C24.14413555 153.4487508 24.14413555 153.4487508 23.63439655 154.63385487 C19.88224006 163.3273161 16.00971974 171.96082164 12.16331196 180.61523914 C-18.52668804 180.61523914 -49.21668804 180.61523914 -80.83668804 180.61523914 C-80.0164277 175.69367709 -78.90384169 172.01974676 -76.87184429 167.59570789 C-76.56711193 166.91674458 -76.26237957 166.23778126 -75.9484129 165.53824329 C-75.28607385 164.06445853 -74.62057053 162.59209263 -73.95225811 161.12100697 C-72.50653161 157.93833059 -71.07627448 154.74877911 -69.64505291 151.55955982 C-68.88526947 149.86680271 -68.12470578 148.17439561 -67.36340618 146.48231983 C-63.02131503 136.82482905 -58.7720342 127.12695602 -54.52418804 117.42773914 C-53.37615341 114.80846118 -52.22787984 112.18928806 -51.07956219 109.57013416 C-50.34385766 107.89207683 -49.6082499 106.21397706 -48.87274456 104.53583241 C-46.35166825 98.78497556 -43.8194639 93.03914009 -41.28273296 87.29517078 C-37.20172976 78.05088021 -33.18207693 68.78258216 -29.21168804 59.49023914 C-24.47994237 48.42222771 -19.71859856 37.36727554 -14.92366314 26.32648182 C-14.16196004 24.5712846 -13.40148712 22.81555298 -12.64229107 21.05926991 C-11.57375032 18.58816262 -10.50070765 16.11905738 -9.42653179 13.65039539 C-9.10825924 12.91201939 -8.78998669 12.17364338 -8.46206951 11.41289234 C-8.16022243 10.7217786 -7.85837536 10.03066486 -7.5473814 9.31860828 C-7.28823452 8.72133427 -7.02908764 8.12406025 -6.76208782 7.50868702 C-6.45670589 6.88384922 -6.15132397 6.25901142 -5.83668804 5.61523914 C-5.45375717 4.76358803 -5.0708263 3.91193691 -4.67629147 3.03447819 C-2.83668804 0.61523914 -2.83668804 0.61523914 0 0 Z " fill="#9E191C" transform="translate(194.836688041687,393.3847608566284)"/>
<path d="M0 0 C0.90621094 0.16886719 1.81242187 0.33773438 2.74609375 0.51171875 C8.703125 1.703125 8.703125 1.703125 11 4 C10.01 4 9.02 4 8 4 C8 4.66 8 5.32 8 6 C9.216875 6.185625 10.43375 6.37125 11.6875 6.5625 C18.29179393 8.04295381 24.53251767 11.03191033 30 15 C31.66283538 17.72619363 32.8014958 20.01108816 33.4296875 23.140625 C34.26667517 25.86943412 35.94052181 26.95798738 38.125 28.75 C46.02635907 35.51366338 52.62482724 43.64021279 58.515625 52.203125 C59.96715111 54.28349422 59.96715111 54.28349422 63 55 C64.1328125 57.80078125 64.1328125 57.80078125 65.125 61.3125 C65.62386719 63.03919922 65.62386719 63.03919922 66.1328125 64.80078125 C66.41898438 65.85652344 66.70515625 66.91226563 67 68 C67.17942139 68.59055176 67.35884277 69.18110352 67.54370117 69.78955078 C68.5364879 74.59890926 68.18588925 79.62273941 68.18530273 84.51489258 C68.18746688 86.53163482 68.20557744 88.54780916 68.22460938 90.56445312 C68.23607309 98.27189398 67.73832927 105.48234146 66 113 C64.68 113.33 63.36 113.66 62 114 C61.9498877 113.41621582 61.89977539 112.83243164 61.84814453 112.23095703 C61.61284118 109.52843666 61.36895876 106.82675227 61.125 104.125 C61.04636719 103.2071875 60.96773437 102.289375 60.88671875 101.34375 C60.46553552 96.74313319 59.90068064 92.29536242 58.90625 87.78125 C57.97998995 83.4163252 57.93975506 79.8144984 58.375 75.375 C58.48585938 74.16585937 58.59671875 72.95671875 58.7109375 71.7109375 C58.80632812 70.81632812 58.90171875 69.92171875 59 69 C58.85304688 70.04800781 58.85304688 70.04800781 58.703125 71.1171875 C58.55359375 72.02726562 58.4040625 72.93734375 58.25 73.875 C58.11078125 74.77992188 57.9715625 75.68484375 57.828125 76.6171875 C57 79 57 79 55.31640625 80.25390625 C52.45058928 81.17696028 49.66991334 81.64545278 46.6875 82.0625 C44.97046875 82.30806641 44.97046875 82.30806641 43.21875 82.55859375 C42.1565625 82.70425781 41.094375 82.84992188 40 83 C38.56240892 83.20770391 37.12488465 83.41587231 35.6875 83.625 C34.800625 83.74875 33.91375 83.8725 33 84 C32.896875 85.11375 32.79375 86.2275 32.6875 87.375 C32.16469603 91.55743179 31.08969993 95.4161103 29.8125 99.42578125 C29.27748472 101.12085371 28.77639899 102.82706965 28.3125 104.54296875 C27.62468387 107.06365854 26.83796021 109.52546023 26 112 C25.75636719 112.82113281 25.51273438 113.64226562 25.26171875 114.48828125 C24.14301113 117.30116338 23.21765579 118.91455061 21 121 C16.38428718 122.80237458 11.79858548 123.80827262 6.92822266 124.65771484 C4.43148877 125.1009183 1.9715938 125.68495445 -0.5 126.25 C-1.99734904 126.51541638 -3.49730738 126.76673003 -5 127 C-5.69351563 127.13148438 -6.38703125 127.26296875 -7.1015625 127.3984375 C-10.28180554 127.75452649 -12.45722952 127.40367901 -15.02734375 125.4921875 C-17.14674266 123.41753598 -19.08000971 121.25994834 -21 119 C-21.60972656 118.31808594 -22.21945312 117.63617187 -22.84765625 116.93359375 C-27.45390697 111.76041986 -27.45390697 111.76041986 -29.453125 108.9765625 C-32.09088234 105.40209217 -32.09088234 105.40209217 -35.93115234 103.37890625 C-42.17903308 102.64269551 -46.88837473 103.80132556 -52.75 105.9375 C-63.23331864 109.63701229 -63.23331864 109.63701229 -67 109 C-73.9270003 104.63090577 -78.55309878 95.70205072 -83 89 C-83.66 88.01 -84.32 87.02 -85 86 C-85.67449522 79.68574956 -83.83207071 74.44559727 -81.8125 68.5625 C-81.52052734 67.65951172 -81.22855469 66.75652344 -80.92773438 65.82617188 C-78.9693516 60.00998561 -76.50660725 55.03734702 -73 50 C-74.36125 48.948125 -74.36125 48.948125 -75.75 47.875 C-78.8605921 45.26683132 -81.07663639 42.61592358 -83 39 C-82.77652273 34.8165056 -79.85333631 32.21254653 -77.125 29.3125 C-76.63394775 28.78648193 -76.14289551 28.26046387 -75.63696289 27.71850586 C-63.5173783 14.98453774 -50.75189296 8.4684391 -34 4 C-33.01 4 -32.02 4 -31 4 C-31 3.01 -31 2.02 -31 1 C-21.07083837 -3.45352103 -10.3652615 -2.0730523 0 0 Z " fill="#565654" transform="translate(496,403)"/>
<path d="M0 0 C3.51676909 2.72601628 4.48398048 6.57768069 5.875 10.625 C7.80535265 16.02649519 9.91286537 20.93349655 12.8515625 25.875 C14.62311639 29.15297726 15.75826591 32.6153389 16.9765625 36.12890625 C18.01741355 39.048851 19.17111805 41.89365588 20.375 44.75 C22.37813922 49.51135584 24.36564567 54.27787755 26.3125 59.0625 C26.5791748 59.70606445 26.84584961 60.34962891 27.12060547 61.01269531 C28.26817722 63.84805011 29 65.90847089 29 69 C29.66 69 30.32 69 31 69 C31.45439453 70.32451172 31.45439453 70.32451172 31.91796875 71.67578125 C33.94090289 77.4707095 35.98581573 83.17251884 38.5625 88.75 C38.96597656 89.63042969 39.36945313 90.51085937 39.78515625 91.41796875 C40.59682279 93.14308639 41.43835146 94.85445823 42.30859375 96.55078125 C44.95250764 102.12467185 45.11088932 105.04493742 43.19921875 110.8112793 C40.4583201 118.09932435 37.33689106 125.22853842 34.25 132.375 C32.71873672 135.94158847 31.19136068 139.50983711 29.6640625 143.078125 C29.27685028 143.9814859 28.88963806 144.8848468 28.49069214 145.81558228 C24.13495584 155.99135357 19.89204373 166.21385797 15.66711426 176.44451904 C14.77191904 178.61213934 13.87432318 180.77875381 12.9765625 182.9453125 C12.71789398 183.57483826 12.45922546 184.20436401 12.19271851 184.85296631 C10.6071129 188.67554179 8.85885522 192.28228956 7 196 C-23.03 196 -53.06 196 -84 196 C-83.21116909 191.26701452 -82.45396357 188.29282028 -80.5859375 184.046875 C-80.0796582 182.88728271 -79.57337891 181.72769043 -79.05175781 180.53295898 C-78.49296533 179.27191647 -77.93404229 178.01093179 -77.375 176.75 C-76.7946652 175.42742002 -76.21492511 174.10457895 -75.63574219 172.78149414 C-74.08667203 169.24801333 -72.52893853 165.71842404 -70.96838379 162.19000244 C-69.6735644 159.26176504 -68.38150207 156.33231424 -67.08929443 153.40292358 C-64.8321258 148.28606528 -62.57388993 143.16968172 -60.3125 138.0546875 C-56.24631813 128.85360254 -52.24147702 119.62893721 -48.296875 110.375 C-45.43121864 103.65588473 -42.52875057 96.95271324 -39.625 90.25 C-39.34604889 89.60588165 -39.06709778 88.96176331 -38.7796936 88.29812622 C-35.0747499 79.74604288 -31.33312814 71.21085066 -27.5625 62.6875 C-22.60073543 51.46428613 -17.80123963 40.17454604 -13.03344727 28.86791992 C-10.10194398 21.91983118 -7.146156 14.98284156 -4.140625 8.06640625 C-3.84122009 7.37320786 -3.54181519 6.68000946 -3.2333374 5.96580505 C-1.1168538 1.1168538 -1.1168538 1.1168538 0 0 Z " fill="#A51B1E" transform="translate(291,164)"/>
<path d="M0 0 C0 0.99 0 1.98 0 3 C-0.60884033 3.17539307 -1.21768066 3.35078613 -1.8449707 3.53149414 C-21.73074473 9.33864431 -38.62476672 17.6746734 -51 35 C-50.67762001 38.32454365 -49.16248529 40.49501959 -47.1875 43.125 C-46.68605469 43.80820312 -46.18460937 44.49140625 -45.66796875 45.1953125 C-43.90480448 47.10299843 -42.3773099 47.99957024 -40 49 C-40.91265625 49.82177734 -40.91265625 49.82177734 -41.84375 50.66015625 C-48.56200061 57.95043182 -52.36544517 71.77299488 -53.35546875 81.48828125 C-52.74420315 87.52704798 -48.8271241 91.73647994 -45.22705078 96.40625 C-44.09441688 97.87736701 -42.99665711 99.37515897 -41.90234375 100.875 C-40.92974609 102.1125 -40.92974609 102.1125 -39.9375 103.375 C-39.36902344 104.10460937 -38.80054688 104.83421875 -38.21484375 105.5859375 C-35.37396925 107.39968806 -33.38810113 107.09300673 -30.13842773 106.51513672 C-26.01813713 105.52257899 -22.05673787 104.11667502 -18.08789062 102.640625 C-12.9488184 100.88557384 -8.24530411 100.24896673 -3 102 C-0.3593534 103.8533841 1.58207497 106.08148672 3.625 108.5625 C4.17768555 109.19567139 4.73037109 109.82884277 5.29980469 110.48120117 C6.88634508 112.30488319 8.44357219 114.15063434 10 116 C11.41395688 117.60655566 12.82996798 119.21131163 14.25 120.8125 C15.03117187 121.71935547 15.03117187 121.71935547 15.828125 122.64453125 C16.52660362 123.45243819 17.24482254 124.24482254 18 125 C25.31231122 125.49455245 32.12455302 124.04278651 39.25 122.5 C40.42046875 122.28085937 41.5909375 122.06171875 42.796875 121.8359375 C48.78837528 120.68151922 48.78837528 120.68151922 53.61303711 117.25756836 C54.69965491 115.18567666 55.39209754 113.25666269 56 111 C56.38285156 109.76378906 56.76570312 108.52757812 57.16015625 107.25390625 C57.45792969 106.03574219 57.75570312 104.81757813 58.0625 103.5625 C59.3149892 98.57671296 60.67455871 93.68155719 62.38671875 88.83203125 C63.03114575 86.90695951 63.53153348 84.9745645 64 83 C71.64343712 81.20295366 79.28835349 79.47966129 87 78 C88.66594452 70.68925318 89.51172287 63.47834967 90 56 C90.33 56 90.66 56 91 56 C91.02745141 58.45842593 91.0485591 60.91648174 91.0625 63.375 C91.06963013 64.48319092 91.06963013 64.48319092 91.0769043 65.61376953 C91.07900234 69.44648155 90.92664537 73.08331992 90.3125 76.875 C89.61711232 82.44749853 90.85413027 87.69208977 91.87548828 93.15527344 C93.08902074 99.85149776 93.32494836 106.18811958 93 113 C93.99 112.67 94.98 112.34 96 112 C97.93474827 103.39270792 98.38443394 95.0557532 98.375 86.25 C98.37611786 85.59068481 98.37723572 84.93136963 98.37838745 84.2520752 C98.36952508 73.64494909 97.81929216 63.63858433 93 54 C92.38640625 53.89816406 91.7728125 53.79632813 91.140625 53.69140625 C87.9838054 52.67177656 87.35967099 50.77786605 85.75 47.9375 C82.88008156 43.17899007 79.80806741 39.5020567 75.7734375 35.70703125 C74 34 74 34 71.9375 31.3125 C70.10101252 29.12056333 68.69336505 28.11424555 66.3125 26.625 C64.46875 25.38671875 64.46875 25.38671875 63 24 C62.3125 20.4375 62.3125 20.4375 62 17 C60.20808968 14.70784955 60.20808968 14.70784955 58 13 C57 12 56 11 55 10 C56.68359375 9.265625 56.68359375 9.265625 59 9 C63.0460788 11.49191239 66.49239793 14.80574065 70 18 C71.3921875 19.26650391 71.3921875 19.26650391 72.8125 20.55859375 C90.19316166 37.17391377 101.73582894 57.98061062 102.34692383 82.31274414 C102.49075364 97.68002204 101.04321159 112.10601429 94 126 C93.50757813 126.97195313 93.01515625 127.94390625 92.5078125 128.9453125 C82.00834188 148.18596919 67.25294407 160.24607458 47 168 C46.34725098 168.2592627 45.69450195 168.51852539 45.02197266 168.78564453 C35.27317445 172.58674873 26.82987385 173.33840405 16.375 173.3125 C15.09753906 173.32861328 13.82007813 173.34472656 12.50390625 173.36132812 C-10.59411261 173.37302925 -29.62568087 165.15599487 -46 149 C-63.19888715 131.55185361 -72.69337301 108.78341634 -72.54541016 84.36743164 C-72.09414852 70.59440135 -67.94291174 57.3720617 -62 45 C-61.59523438 44.10410156 -61.19046875 43.20820313 -60.7734375 42.28515625 C-51.37799305 23.13713057 -32.30730103 9.46952119 -12.8984375 1.76953125 C-8.52949059 0.36381268 -4.62772811 -0.36534696 0 0 Z " fill="#181816" transform="translate(465,404)"/>
<path d="M0 0 C30.69 0 61.38 0 93 0 C92.14693743 3.41225029 91.12806327 6.20497832 89.7265625 9.40625 C89.24082764 10.5209668 88.75509277 11.63568359 88.25463867 12.78417969 C87.71142724 14.0227871 87.1682143 15.26139385 86.625 16.5 C85.75609269 18.49067141 84.88837256 20.48185763 84.02073669 22.4730835 C83.38936831 23.92200081 82.75765334 25.37076714 82.12562561 26.81939697 C79.46548464 32.91985285 76.82570054 39.02896895 74.19140625 45.140625 C73.57165924 46.5781311 73.57165924 46.5781311 72.93939209 48.04467773 C71.28683288 51.878249 69.63450552 55.71191935 67.98345947 59.54614258 C66.81672817 62.25512292 65.64869371 64.9635385 64.48046875 67.671875 C64.14737198 68.44629944 63.81427521 69.22072388 63.47108459 70.01861572 C59.7189281 78.71207695 55.84640778 87.3455825 52 96 C21.31 96 -9.38 96 -41 96 C-40.17973844 91.07843064 -39.06713803 87.40451324 -37.03515625 82.98046875 C-36.7301973 82.30096161 -36.42523834 81.62145447 -36.11103821 80.9213562 C-35.10104212 78.67389555 -34.08164692 76.43082389 -33.0625 74.1875 C-31.98119802 71.78657068 -30.90256571 69.38445393 -29.82415771 66.98222351 C-29.06664837 65.29496609 -28.30837332 63.60805225 -27.54937744 61.92146301 C-22.69882105 51.1325649 -17.97042278 40.28998941 -13.2336731 29.45077515 C-12.14382742 26.95760084 -11.05244338 24.46510407 -9.9609375 21.97265625 C-9.64892899 21.25713593 -9.33692047 20.5416156 -9.01545715 19.80441284 C-6.10278435 13.15597943 -3.04396201 6.59525101 0 0 Z " fill="#740709" transform="translate(155,478)"/>
<path d="M0 0 C6.23169655 0.23931246 9.09751919 3.28398879 13.3125 7.4375 C13.97258057 8.07421631 14.63266113 8.71093262 15.31274414 9.36694336 C17.22587082 11.22801536 19.1169141 13.10858647 21 15 C21.88945313 15.88945312 22.77890625 16.77890625 23.6953125 17.6953125 C41.00766247 35.9728109 47.85283884 57.66456764 47.28515625 82.2890625 C46.79559539 94.56700295 44.59977051 105.95345817 39 117 C38.50757813 117.97195313 38.01515625 118.94390625 37.5078125 119.9453125 C30.39206129 132.98518194 19.91136943 146.9751437 5.23828125 151.58984375 C3 152 3 152 0.1015625 151.98046875 C-3.15464622 152.00097384 -5.79181737 152.55720349 -8.9375 153.375 C-18.19219748 155.61181692 -28.45092173 157.90148641 -38 157 C-40.546875 155.171875 -40.546875 155.171875 -42.75 152.75 C-43.48734375 151.96109375 -44.2246875 151.1721875 -44.984375 150.359375 C-45.64953125 149.58078125 -46.3146875 148.8021875 -47 148 C-47.90492188 147.04867187 -47.90492188 147.04867187 -48.828125 146.078125 C-50 144 -50 144 -49.95703125 141.1484375 C-48.82812814 137.43457665 -46.99543107 134.68254708 -44.6875 131.625 C-43.90761719 130.56539062 -43.12773437 129.50578125 -42.32421875 128.4140625 C-41.92348145 127.87185059 -41.52274414 127.32963867 -41.10986328 126.77099609 C-39.92091524 125.0132471 -39.92091524 125.0132471 -39.24560547 122.90478516 C-38.39275484 120.54449544 -37.64263042 118.90890832 -36 117 C-32.03409853 115.31921501 -27.99553721 114.73916497 -23.75 114.125 C-21.53624194 113.75389271 -19.32269491 113.38152407 -17.109375 113.0078125 C-16.06040039 112.83773682 -15.01142578 112.66766113 -13.93066406 112.49243164 C-10.17227668 111.86091987 -6.63486039 111.1592487 -3 110 C1.06382752 104.24291102 2.35319392 97.39573253 4.0546875 90.640625 C5.0082027 86.96840945 6.12449239 83.40716403 7.38671875 79.83203125 C8.03114575 77.90695951 8.53153348 75.9745645 9 74 C16.64343712 72.20295366 24.28835349 70.47966129 32 69 C33.66594452 61.68925318 34.51172287 54.47834967 35 47 C35.33 47 35.66 47 36 47 C36.02745141 49.45842593 36.0485591 51.91648174 36.0625 54.375 C36.06725342 55.11379395 36.07200684 55.85258789 36.0769043 56.61376953 C36.07900234 60.44648155 35.92664537 64.08331992 35.3125 67.875 C34.61711232 73.44749853 35.85413027 78.69208977 36.87548828 84.15527344 C38.08902074 90.85149776 38.32494836 97.18811958 38 104 C38.99 103.67 39.98 103.34 41 103 C42.93474827 94.39270792 43.38443394 86.0557532 43.375 77.25 C43.37611786 76.59068481 43.37723572 75.93136963 43.37838745 75.2520752 C43.36952508 64.64494909 42.81929216 54.63858433 38 45 C37.38640625 44.89816406 36.7728125 44.79632813 36.140625 44.69140625 C32.9838054 43.67177656 32.35967099 41.77786605 30.75 38.9375 C27.88008156 34.17899007 24.80806741 30.5020567 20.7734375 26.70703125 C19 25 19 25 16.9375 22.3125 C15.10101252 20.12056333 13.69336505 19.11424555 11.3125 17.625 C9.46875 16.38671875 9.46875 16.38671875 8 15 C7.3125 11.4375 7.3125 11.4375 7 8 C5.20808968 5.70784955 5.20808968 5.70784955 3 4 C1.98198643 3.01834406 0.9753197 2.02408568 0 1 C0 0.67 0 0.34 0 0 Z " fill="#1B1B17" transform="translate(520,413)"/>
<path d="M0 0 C1.2065625 0.0309375 1.2065625 0.0309375 2.4375 0.0625 C4.72299287 5.4164646 7.00146306 10.77334142 9.2734375 16.13305664 C10.04754758 17.95646903 10.82358046 19.77906635 11.6015625 21.60083008 C12.71859486 24.21744987 13.82871072 26.83690974 14.9375 29.45703125 C15.28748047 30.27275101 15.63746094 31.08847076 15.99804688 31.9289093 C16.31837891 32.68947128 16.63871094 33.45003326 16.96875 34.23364258 C17.39510742 35.2362487 17.39510742 35.2362487 17.83007812 36.2591095 C18.4375 38.0625 18.4375 38.0625 18.4375 41.0625 C17.67308594 41.09988281 16.90867187 41.13726562 16.12109375 41.17578125 C2.80953526 41.9927361 -9.50575967 44.22537468 -21.5625 50.0625 C-22.48675781 50.50464844 -23.41101563 50.94679688 -24.36328125 51.40234375 C-37.43475673 58.07674636 -48.12352219 68.16137745 -56.5625 80.0625 C-58.4502034 77.2309449 -59.53408346 74.79178612 -60.7421875 71.62890625 C-61.38534912 69.96214844 -61.38534912 69.96214844 -62.04150391 68.26171875 C-62.50218262 67.06160156 -62.96286133 65.86148438 -63.4375 64.625 C-67.95102117 52.94882563 -72.75369231 41.42221054 -77.76513672 29.95141602 C-78.48854248 28.28937134 -78.48854248 28.28937134 -79.2265625 26.59375 C-79.65404785 25.61986328 -80.0815332 24.64597656 -80.52197266 23.64257812 C-81.40809044 21.44537195 -82.06790542 19.37379163 -82.5625 17.0625 C-81.85351562 17.04832031 -81.14453125 17.03414063 -80.4140625 17.01953125 C-53.33396894 15.80650042 -25.69771672 0.62677358 0 0 Z " fill="#AE2324" transform="translate(464.5625,360.9375)"/>
<path d="M0 0 C3.64472669 0.55385553 5.12609669 2.5472904 7.640625 5.17578125 C8.11226074 5.66481934 8.58389648 6.15385742 9.06982422 6.65771484 C13.81054933 11.64686223 18.11490489 16.9738852 22.390625 22.36328125 C22.720625 22.69328125 23.050625 23.02328125 23.390625 23.36328125 C23.83651431 30.38603788 22.59996037 35.7454564 20.390625 42.36328125 C19.93118754 44.05048097 19.47284677 45.73797974 19.015625 47.42578125 C18.48801861 49.07617564 17.94636676 50.72214712 17.390625 52.36328125 C17.14699219 53.18441406 16.90335938 54.00554688 16.65234375 54.8515625 C15.53363613 57.66444463 14.60828079 59.27783186 12.390625 61.36328125 C7.77491218 63.16565583 3.18921048 64.17155387 -1.68115234 65.02099609 C-4.17788623 65.46419955 -6.6377812 66.0482357 -9.109375 66.61328125 C-10.60672404 66.87869763 -12.10668238 67.13001128 -13.609375 67.36328125 C-14.64964844 67.56050781 -14.64964844 67.56050781 -15.7109375 67.76171875 C-18.89118054 68.11780774 -21.06660452 67.76696026 -23.63671875 65.85546875 C-25.75609116 63.78084316 -27.68975154 61.62348306 -29.609375 59.36328125 C-30.5065625 58.3578125 -30.5065625 58.3578125 -31.421875 57.33203125 C-32.58583494 56.02257632 -33.73323452 54.69820634 -34.86328125 53.359375 C-36.60178141 51.31673311 -36.60178141 51.31673311 -38.63671875 49.3984375 C-39.28769531 48.74746094 -39.93867188 48.09648437 -40.609375 47.42578125 C-41.2075 46.85988281 -41.805625 46.29398437 -42.421875 45.7109375 C-45.89801279 38.83870456 -41.10716756 27.90312138 -39.109375 20.98828125 C-38.80773437 19.81394531 -38.50609375 18.63960938 -38.1953125 17.4296875 C-35.78803581 9.17481349 -35.78803581 9.17481349 -32.60595703 6.98388672 C-30.26640188 6.18323448 -28.05181567 5.7345606 -25.609375 5.36328125 C-24.22819113 4.99898842 -22.85030844 4.62187679 -21.4765625 4.23046875 C-20.14675033 3.89607154 -18.81601939 3.5653059 -17.484375 3.23828125 C-16.82050781 3.06941406 -16.15664063 2.90054687 -15.47265625 2.7265625 C-10.33676847 1.45012855 -5.22936096 0.72803977 0 0 Z " fill="#EBD535" transform="translate(504.609375,462.63671875)"/>
<path d="M0 0 C30.69 0 61.38 0 93 0 C92.04088479 3.83646083 90.67991268 7.24994512 89.09375 10.84765625 C88.66660706 11.82731606 88.66660706 11.82731606 88.23083496 12.82676697 C87.32348508 14.90663878 86.41198837 16.98465841 85.5 19.0625 C84.58864805 21.14418175 83.67819547 23.22624812 82.76916504 25.3089447 C82.20417412 26.60286303 81.63774119 27.89615288 81.06970215 29.18873596 C79.9391236 31.773501 78.89288452 34.32134644 78 37 C69.20827108 36.38696934 60.61219692 35.02646753 51.9375 33.5 C50.60747755 33.27181067 49.27739966 33.04394421 47.94726562 32.81640625 C38.26377516 31.13188758 38.26377516 31.13188758 36 30 C34.1936043 29.67264658 32.37925994 29.3888352 30.5625 29.125 C29.40878906 28.95226562 28.25507813 28.77953125 27.06640625 28.6015625 C24.91401681 28.28273002 22.76149172 27.96483501 20.60888672 27.64746094 C18.0716891 27.27074193 15.53583456 26.88577654 13 26.5 C12.18732666 26.38156738 11.37465332 26.26313477 10.53735352 26.14111328 C6.40274395 25.50792736 2.86532758 24.65559164 -1 23 C-3.66572015 22.50686503 -6.29815717 22.27476368 -9 22 C-6.60974975 14.16529085 -3.51731333 7.62084555 0 0 Z " fill="#560303" transform="translate(155,478)"/>
<path d="M0 0 C1.80517578 1.58886719 1.80517578 1.58886719 3.4453125 3.796875 C4.04730469 4.5909375 4.64929688 5.385 5.26953125 6.203125 C6.18798828 7.46382813 6.18798828 7.46382813 7.125 8.75 C8.05505859 9.9875 8.05505859 9.9875 9.00390625 11.25 C10.68372274 13.48975532 12.34322493 15.74318673 14 18 C14.56243408 18.66918457 15.12486816 19.33836914 15.7043457 20.02783203 C17.96746608 23.47261936 16.76612626 27.17415273 16 31 C14.95908889 35.67095539 13.73271242 40.26869961 12.4375 44.875 C12.12748047 46.09703125 11.81746094 47.3190625 11.49804688 48.578125 C9.07058751 57.15230896 9.07058751 57.15230896 6.2434082 59.39086914 C4.15791899 60.19381209 2.19989865 60.61878655 0 61 C-1.44646006 61.44617339 -2.88797743 61.90867243 -4.32421875 62.38671875 C-5.7777159 62.82341969 -7.23215175 63.25700825 -8.6875 63.6875 C-9.78674805 64.02491211 -9.78674805 64.02491211 -10.90820312 64.36914062 C-18.22609618 66.54009357 -18.22609618 66.54009357 -22 66 C-28.9270003 61.63090577 -33.55309878 52.70205072 -38 46 C-38.66 45.01 -39.32 44.02 -40 43 C-40.67449522 36.68574956 -38.83207071 31.44559727 -36.8125 25.5625 C-36.52052734 24.65951172 -36.22855469 23.75652344 -35.92773438 22.82617188 C-31.14476702 8.62127314 -31.14476702 8.62127314 -25.52661133 5.72485352 C-22.54345601 4.64673606 -19.57073455 3.79356061 -16.5 3 C-15.46746094 2.70222656 -14.43492187 2.40445312 -13.37109375 2.09765625 C-3.99131085 -0.52868296 -3.99131085 -0.52868296 0 0 Z " fill="#EAD536" transform="translate(451,446)"/>
<path d="M0 0 C0.6909375 0.6703125 1.381875 1.340625 2.09375 2.03125 C3.23457031 3.13146484 3.23457031 3.13146484 4.3984375 4.25390625 C10.84213864 10.93838626 16.84244682 18.07832475 22.109375 25.734375 C23.56090111 27.81474422 23.56090111 27.81474422 26.59375 28.53125 C27.7265625 31.33203125 27.7265625 31.33203125 28.71875 34.84375 C29.05132813 35.99488281 29.38390625 37.14601563 29.7265625 38.33203125 C30.01273438 39.38777344 30.29890625 40.44351563 30.59375 41.53125 C30.77317139 42.12180176 30.95259277 42.71235352 31.13745117 43.32080078 C32.1302379 48.13015926 31.77963925 53.15398941 31.77905273 58.04614258 C31.78121688 60.06288482 31.79932744 62.07905916 31.81835938 64.09570312 C31.82982309 71.80314398 31.33207927 79.01359146 29.59375 86.53125 C27.61375 87.02625 27.61375 87.02625 25.59375 87.53125 C25.5436377 86.94746582 25.49352539 86.36368164 25.44189453 85.76220703 C25.20659118 83.05968666 24.96270876 80.35800227 24.71875 77.65625 C24.64011719 76.7384375 24.56148437 75.820625 24.48046875 74.875 C24.05928552 70.27438319 23.49443064 65.82661242 22.5 61.3125 C21.57373995 56.9475752 21.53350506 53.3457484 21.96875 48.90625 C22.07960938 47.69710937 22.19046875 46.48796875 22.3046875 45.2421875 C22.40007813 44.34757812 22.49546875 43.45296875 22.59375 42.53125 C22.49578125 43.22992188 22.3978125 43.92859375 22.296875 44.6484375 C22.14734375 45.55851562 21.9978125 46.46859375 21.84375 47.40625 C21.70453125 48.31117188 21.5653125 49.21609375 21.421875 50.1484375 C20.59375 52.53125 20.59375 52.53125 18.91015625 53.78125 C13.93586194 55.39181409 8.75991496 55.86015504 3.59375 56.53125 C2.335625 56.77875 1.0775 57.02625 -0.21875 57.28125 C-4.9632909 56.16488744 -6.62457683 53.03920378 -9.42578125 49.203125 C-12.0912564 45.60709936 -15.18025375 42.61561715 -18.40625 39.53125 C-25.40625 32.53125 -25.40625 32.53125 -25.63330078 29.45849609 C-25.62282715 28.17023926 -25.61235352 26.88198242 -25.6015625 25.5546875 C-25.5987326 24.86944 -25.59590271 24.1841925 -25.59298706 23.47817993 C-25.58178281 21.28735973 -25.55667859 19.09694684 -25.53125 16.90625 C-25.52122048 15.4218809 -25.51209458 13.9375054 -25.50390625 12.453125 C-25.48184294 8.81236739 -25.44731176 5.17184844 -25.40625 1.53125 C-22.88681604 1.02312886 -20.36608127 0.52460466 -17.84375 0.03125 C-17.13927734 -0.11183594 -16.43480469 -0.25492187 -15.70898438 -0.40234375 C-4.28241027 -2.61393874 -4.28241027 -2.61393874 0 0 Z " fill="#EEDD5B" transform="translate(532.40625,429.46875)"/>
<path d="M0 0 C1.63340758 2.14310228 2.93307015 4.11471184 4.25 6.4375 C7.08286197 11.22025398 9.85647935 15.03056026 13.9375 18.875 C18.84288756 24.0358765 19.2903195 29.36227763 19.73828125 36.140625 C20.01479256 40.21813499 20.72970452 44.01069991 21.6328125 47.984375 C22 50 22 50 22 54 C22.66 54 23.32 54 24 54 C24 54.66 24 55.32 24 56 C29.10887392 57.56930694 34.22306935 59.07913635 39.39453125 60.4296875 C40.28720703 60.66816406 41.17988281 60.90664063 42.09960938 61.15234375 C43.92453758 61.63846573 45.75279835 62.1122282 47.58398438 62.57421875 C53.04355321 64.05922147 56.31900266 65.47062042 60 70 C60.804375 70.91265625 60.804375 70.91265625 61.625 71.84375 C62.07875 72.3903125 62.5325 72.936875 63 73.5 C65.53103833 76.49659201 68.18594172 79.26870814 71 82 C69.44096191 83.84648574 68.53915864 84.89553801 66.125 85.36328125 C45.33548657 84.86647302 25.72496086 76.65848248 11 62 C11.33 61.01 11.66 60.02 12 59 C11.113125 58.79375 10.22625 58.5875 9.3125 58.375 C0.26476264 54.61933544 -4.82378507 42.02497869 -8.5546875 33.41015625 C-9.76283495 30.28970441 -10.91417013 27.16489946 -12 24 C-12.37125 23.05898438 -12.7425 22.11796875 -13.125 21.1484375 C-14.21818671 17.21491747 -14.22033962 13.68060083 -14.125 9.625 C-14.11597656 8.88894531 -14.10695313 8.15289062 -14.09765625 7.39453125 C-14.07430144 5.5962112 -14.03843836 3.79806089 -14 2 C-12.60993485 1.46396181 -11.21257351 0.94682527 -9.8125 0.4375 C-9.03519531 0.14746094 -8.25789063 -0.14257812 -7.45703125 -0.44140625 C-4.42046355 -1.13175471 -2.90698333 -1.17016444 0 0 Z " fill="#BBA011" transform="translate(411,490)"/>
<path d="M0 0 C2.91647416 2.05478861 5.41032342 4.55101007 8 7 C8.54785156 7.46148438 9.09570312 7.92296875 9.66015625 8.3984375 C11.0625 9.625 11.0625 9.625 13 12 C12.09663534 21.59824948 4.48811602 31.28860873 -2 38 C-7.64228103 41.71235048 -15.4286157 41.98999575 -22 43 C-22.74701172 43.1242334 -23.49402344 43.2484668 -24.26367188 43.37646484 C-36.79331444 45.34610727 -36.79331444 45.34610727 -41.96484375 42.19140625 C-44.27373618 39.91245084 -46.15107944 37.66053592 -48 35 C-48.59039062 34.36449219 -49.18078125 33.72898437 -49.7890625 33.07421875 C-51 31 -51 31 -50.95703125 28.15625 C-49.82267311 24.41518316 -47.98854724 21.59997084 -45.6875 18.5 C-44.89926125 17.40659468 -44.11149809 16.31284633 -43.32421875 15.21875 C-42.55722656 14.1565625 -41.79023438 13.094375 -41 12 C-40.42765625 10.90945313 -39.8553125 9.81890625 -39.265625 8.6953125 C-35.99184597 4.80064434 -32.95146807 4.83349063 -28.0625 4.375 C-20.85798674 3.49797663 -14.50185225 2.1616243 -7.6640625 -0.328125 C-4.60678569 -1.09916842 -2.97582263 -1.00809627 0 0 Z " fill="#A5880A" transform="translate(521,526)"/>
<path d="M0 0 C4.01119636 3.15165429 5.27152224 6.80075287 7 11.42578125 C7.88156257 13.69511614 8.86524073 15.78766309 10 17.9375 C12.02494189 21.86919651 13.470885 25.92822676 14.94140625 30.09375 C16.37483429 34.02906535 18.00507551 37.87070908 19.62890625 41.73046875 C21.20970914 45.50007564 22.77190318 49.27630295 24.3125 53.0625 C24.71251221 54.02784668 24.71251221 54.02784668 25.12060547 55.01269531 C26.26817722 57.84805011 27 59.90847089 27 63 C27.66 63 28.32 63 29 63 C29.30292969 63.88300781 29.60585938 64.76601562 29.91796875 65.67578125 C31.94090289 71.4707095 33.98581573 77.17251884 36.5625 82.75 C36.96597656 83.63042969 37.36945313 84.51085937 37.78515625 85.41796875 C38.59682279 87.14308639 39.43835146 88.85445823 40.30859375 90.55078125 C42.95077004 96.12100865 43.11031354 99.04514973 41.20263672 104.80932617 C38.48589797 112.01701166 35.38702063 119.06451421 32.3125 126.125 C31.60300833 127.76540568 30.89401971 129.40602904 30.18554688 131.046875 C28.46282268 135.03378406 26.73331076 139.01768272 25 143 C24.67 143 24.34 143 24 143 C23.9293933 142.41787845 23.8587866 141.83575689 23.78604031 141.23599529 C22.01215349 126.76558921 19.78975313 112.44509792 17.12890625 98.11328125 C16.76116449 96.10906913 16.39390179 94.10476907 16.02708435 92.10038757 C15.26501527 87.94280864 14.49922413 83.78594123 13.73022461 79.62963867 C12.75588126 74.36337502 11.78804608 69.09594346 10.82266331 63.82803059 C9.88527945 58.71437559 8.94474689 53.60130119 8.00390625 48.48828125 C7.74435245 47.0758184 7.74435245 47.0758184 7.47955513 45.63482094 C6.97707344 42.90377416 6.47263197 40.17309974 5.96704102 37.44262695 C5.8068728 36.57553761 5.64670458 35.70844828 5.48168278 34.8150835 C4.6507914 30.35488919 3.78313356 25.90532618 2.86129761 21.46298218 C2.67535254 20.56180003 2.48940748 19.66061789 2.29782772 18.73212719 C1.94432024 17.03084086 1.58494821 15.3307575 1.21841526 13.6322298 C0.25173077 8.98209957 -0.17719946 4.75016687 0 0 Z " fill="#6A0809" transform="translate(293,170)"/>
<path d="M0 0 C0.84324672 1.578076 1.67423918 3.1627042 2.5 4.75 C2.9640625 5.63171875 3.428125 6.5134375 3.90625 7.421875 C5 10 5 10 5 14 C3.56640625 15.60546875 3.56640625 15.60546875 1.5625 17.1875 C-1.66821999 19.85685375 -4.71816717 22.60313137 -7.6875 25.5625 C-8.45191406 26.31917969 -9.21632813 27.07585937 -10.00390625 27.85546875 C-12.19271286 30.07335099 -12.19271286 30.07335099 -14.125 33.375 C-18.24217304 37.13415799 -22.76914202 37.40707257 -28.12109375 38.26953125 C-32.62122805 39.11698856 -36.55009766 40.59566487 -40.73046875 42.42578125 C-43 43 -43 43 -45.09375 42.34765625 C-47.26705423 40.81120141 -48.70201685 39.24300514 -50.3125 37.125 C-50.84488281 36.44695312 -51.37726563 35.76890625 -51.92578125 35.0703125 C-53 33 -53 33 -52.97265625 31.09765625 C-51.55320556 28.03643126 -49.41283122 25.74431787 -47.125 23.3125 C-46.63394775 22.78648193 -46.14289551 22.26046387 -45.63696289 21.71850586 C-33.12521985 8.57249942 -18.69901171 -1.07419854 0 0 Z " fill="#EEDD54" transform="translate(466,409)"/>
<path d="M0 0 C0 0.99 0 1.98 0 3 C-0.60884033 3.17539307 -1.21768066 3.35078613 -1.8449707 3.53149414 C-21.73074473 9.33864431 -38.62476672 17.6746734 -51 35 C-50.67762001 38.32454365 -49.16248529 40.49501959 -47.1875 43.125 C-46.68605469 43.80820312 -46.18460937 44.49140625 -45.66796875 45.1953125 C-43.90480448 47.10299843 -42.3773099 47.99957024 -40 49 C-40.91265625 49.82177734 -40.91265625 49.82177734 -41.84375 50.66015625 C-48.56200061 57.95043182 -52.36544517 71.77299488 -53.35546875 81.48828125 C-52.91680528 85.82189069 -51.55856148 87.87426554 -49 91.375 C-48.59644287 91.93227783 -48.19288574 92.48955566 -47.77709961 93.0637207 C-43.5982599 98.74135895 -38.98368067 104.01631933 -34 109 C-34.99 109.33 -35.98 109.66 -37 110 C-44.28867591 102.54703017 -49.84372637 95.05948636 -55 86 C-56.2684375 86.2165625 -56.2684375 86.2165625 -57.5625 86.4375 C-61.03593149 87.0058797 -64.51445662 87.51202393 -68 88 C-67.75639347 104.853143 -62.8981481 118.22795932 -55 133 C-56.32 133 -57.64 133 -59 133 C-71.07500845 109.40657759 -76.45877288 87.21707358 -68.421875 61.2109375 C-66.58576451 55.65533489 -64.53483016 50.2770555 -62 45 C-61.59523438 44.10410156 -61.19046875 43.20820313 -60.7734375 42.28515625 C-51.37799305 23.13713057 -32.30730103 9.46952119 -12.8984375 1.76953125 C-8.52949059 0.36381268 -4.62772811 -0.36534696 0 0 Z " fill="#1E201D" transform="translate(465,404)"/>
<path d="M0 0 C0.66443115 0.31130859 1.3288623 0.62261719 2.01342773 0.94335938 C6.42256399 3.21471508 8.31770511 5.41763434 10 10.0625 C10 11.0525 10 12.0425 10 13.0625 C8.2984375 13.26166016 8.2984375 13.26166016 6.5625 13.46484375 C5.04166481 13.64321331 3.52083158 13.82159962 2 14 C1.25621094 14.08701172 0.51242187 14.17402344 -0.25390625 14.26367188 C-0.99511719 14.35068359 -1.73632812 14.43769531 -2.5 14.52734375 C-3.25240967 14.61129395 -4.00481934 14.69524414 -4.7800293 14.78173828 C-6.20669161 14.96216957 -7.62925656 15.18150584 -9.04223633 15.44873047 C-14.68367855 16.45317048 -18.49978431 15.29826361 -23.6875 13.3125 C-29.23466602 11.27498766 -34.37512693 9.74510175 -40.25 8.875 C-44.10725364 8.07913628 -45.57268115 7.56001022 -48.1640625 4.54296875 C-49.78076344 1.72666095 -51.0893589 -0.82066653 -52 -3.9375 C-51.67 -4.9275 -51.34 -5.9175 -51 -6.9375 C-34.51220036 -13.20286386 -15.17542982 -7.28113175 0 0 Z " fill="#F0E167" transform="translate(519,413.9375)"/>
<path d="M0 0 C0.33 1.32 0.66 2.64 1 4 C1.66 4 2.32 4 3 4 C3 4.66 3 5.32 3 6 C8.10887392 7.56930694 13.22306935 9.07913635 18.39453125 10.4296875 C19.28720703 10.66816406 20.17988281 10.90664063 21.09960938 11.15234375 C22.92453758 11.63846573 24.75279835 12.1122282 26.58398438 12.57421875 C32.04355321 14.05922147 35.31900266 15.47062042 39 20 C39.53625 20.6084375 40.0725 21.216875 40.625 21.84375 C41.305625 22.66359375 41.305625 22.66359375 42 23.5 C44.53103833 26.49659201 47.18594172 29.26870814 50 32 C48.44096191 33.84648574 47.53915864 34.89553801 45.125 35.36328125 C24.33548657 34.86647302 4.72496086 26.65848248 -10 12 C-9.67 11.01 -9.34 10.02 -9 9 C-10.98 8.34 -12.96 7.68 -15 7 C-15 6.01 -15 5.02 -15 4 C-14.34 4.66 -13.68 5.32 -13 6 C-9.05401192 5.6492455 -5.54591157 4.77295578 -2 3 C-1.34 2.01 -0.68 1.02 0 0 Z " fill="#8C7004" transform="translate(432,540)"/>
<path d="M0 0 C1.98 0 3.96 0 6 0 C6.33 1.65 6.66 3.3 7 5 C8.99983534 4.20882096 8.99983534 4.20882096 11 3 C11.33 2.01 11.66 1.02 12 0 C19.42686315 -0.10331031 26.63512596 0.00137301 34 1 C34 1.66 34 2.32 34 3 C33.01 3 32.02 3 31 3 C31 3.66 31 4.32 31 5 C31.9590625 5.4021875 31.9590625 5.4021875 32.9375 5.8125 C35 7 35 7 36 10 C38.475 10.495 38.475 10.495 41 11 C41.495 14.465 41.495 14.465 42 18 C35.51355922 19.2606416 31.42573376 18.58747163 25.3125 16.25 C19.73392363 14.22121671 14.40298565 12.57381126 8.5625 11.5 C3.29887937 10.37965757 3.29887937 10.37965757 0.6875 7.0625 C0 4 0 4 0 0 Z " fill="#F4E894" transform="translate(470,411)"/>
<path d="M0 0 C2.475 0.495 2.475 0.495 5 1 C5.64715133 3.0829243 6.29267166 5.16635539 6.9375 7.25 C7.47697266 8.99023438 7.47697266 8.99023438 8.02734375 10.765625 C8.34832031 11.83296875 8.66929687 12.9003125 9 14 C9.18159668 14.59127686 9.36319336 15.18255371 9.55029297 15.79174805 C10.53017158 20.60336696 10.18588926 25.62270684 10.18530273 30.51489258 C10.18746688 32.53163482 10.20557744 34.54780916 10.22460938 36.56445312 C10.23607309 44.27189398 9.73832927 51.48234146 8 59 C6.02 59.495 6.02 59.495 4 60 C3.9498877 59.41621582 3.89977539 58.83243164 3.84814453 58.23095703 C3.61284118 55.52843666 3.36895876 52.82675227 3.125 50.125 C3.04636719 49.2071875 2.96773437 48.289375 2.88671875 47.34375 C2.46553552 42.74313319 1.90068064 38.29536242 0.90625 33.78125 C-0.02001005 29.4163252 -0.06024494 25.8144984 0.375 21.375 C0.48585938 20.16585938 0.59671875 18.95671875 0.7109375 17.7109375 C0.80632813 16.81632812 0.90171875 15.92171875 1 15 C0.67 15 0.34 15 0 15 C0 10.05 0 5.1 0 0 Z " fill="#CEB31E" transform="translate(554,457)"/>
<path d="M0 0 C6.23169655 0.23931246 9.09751919 3.28398879 13.3125 7.4375 C13.97258057 8.07421631 14.63266113 8.71093262 15.31274414 9.36694336 C17.22587082 11.22801536 19.1169141 13.10858647 21 15 C21.88945313 15.88945312 22.77890625 16.77890625 23.6953125 17.6953125 C35.79582873 30.47042197 46.44025523 48.31188531 45.9765625 66.34765625 C45.87151224 68.58653997 45.75411856 70.82487531 45.625 73.0625 C45.53992188 74.79016602 45.53992188 74.79016602 45.453125 76.55273438 C45.31288454 79.36923026 45.16160641 82.18466302 45 85 C44.67 85 44.34 85 44 85 C43.9906543 84.38181396 43.98130859 83.76362793 43.97167969 83.12670898 C43.80932933 63.53324186 43.80932933 63.53324186 38 45 C37.38640625 44.89816406 36.7728125 44.79632813 36.140625 44.69140625 C32.9838054 43.67177656 32.35967099 41.77786605 30.75 38.9375 C27.88008156 34.17899007 24.80806741 30.5020567 20.7734375 26.70703125 C19 25 19 25 16.9375 22.3125 C15.10101252 20.12056333 13.69336505 19.11424555 11.3125 17.625 C9.46875 16.38671875 9.46875 16.38671875 8 15 C7.3125 11.4375 7.3125 11.4375 7 8 C5.20808968 5.70784955 5.20808968 5.70784955 3 4 C1.98198643 3.01834406 0.9753197 2.02408568 0 1 C0 0.67 0 0.34 0 0 Z " fill="#323229" transform="translate(520,413)"/>
<path d="M0 0 C1.32 0 2.64 0 4 0 C0.50322165 12.34157065 -6.07497059 21.90151596 -15 31 C-16.20076172 32.22783203 -16.20076172 32.22783203 -17.42578125 33.48046875 C-20.05839604 36.05715546 -22.75354051 38.4918772 -25.5625 40.875 C-26.49191406 41.67679688 -27.42132812 42.47859375 -28.37890625 43.3046875 C-31 45 -31 45 -33.33984375 44.7578125 C-34.16162109 44.38269531 -34.16162109 44.38269531 -35 44 C-34.14728516 42.92685547 -34.14728516 42.92685547 -33.27734375 41.83203125 C-29.10551141 36.44834778 -25.50405208 31.30640716 -22.4375 25.1875 C-19.88896575 20.25485306 -17.40889096 17.02261511 -13.0546875 13.6171875 C-10.76922613 11.81836429 -8.7435933 9.8685933 -6.6875 7.8125 C-6.05199219 7.17957031 -5.41648437 6.54664063 -4.76171875 5.89453125 C-2.93329331 4.03209079 -2.93329331 4.03209079 -1.51953125 1.76171875 C-1.01808594 1.18035156 -0.51664063 0.59898437 0 0 Z " fill="#907604" transform="translate(556,519)"/>
<path d="M0 0 C1.66469051 5.11864021 -0.6265673 9.24729021 -2.91796875 13.83984375 C-3.39169922 14.75443359 -3.39169922 14.75443359 -3.875 15.6875 C-5.61720922 19.06672846 -6.98433637 22.50040869 -8.3125 26.0625 C-10.45766977 31.77409752 -12.9280857 37.25108599 -15.54956055 42.75292969 C-17.04286383 45.90130735 -18.45952322 49.02797453 -19.625 52.3125 C-20.74489915 55.31586591 -21.97134678 57.9776418 -23.4375 60.8125 C-25.23432546 64.31496874 -26.70505085 67.78291925 -28 71.5 C-29.56939338 75.9821875 -31.46940648 80.11954179 -33.64453125 84.3359375 C-38.40788444 93.69791696 -42.50433932 103.32286812 -46.1796875 113.15625 C-46.59476563 114.2596875 -47.00984375 115.363125 -47.4375 116.5 C-47.80746094 117.5003125 -48.17742187 118.500625 -48.55859375 119.53125 C-50.46826017 124.12687 -52.77439676 128.54879351 -55 133 C-10.945 133.495 -10.945 133.495 34 134 C34 134.33 34 134.66 34 135 C3.97 135 -26.06 135 -57 135 C-56.21116909 130.26701452 -55.45396357 127.29282028 -53.5859375 123.046875 C-52.82651855 121.30748657 -52.82651855 121.30748657 -52.05175781 119.53295898 C-51.49296533 118.27191647 -50.93404229 117.01093179 -50.375 115.75 C-49.7946652 114.42742002 -49.21492511 113.10457895 -48.63574219 111.78149414 C-47.08667203 108.24801333 -45.52893853 104.71842404 -43.96838379 101.19000244 C-42.6735644 98.26176504 -41.38150207 95.33231424 -40.08929443 92.40292358 C-37.8321258 87.28606528 -35.57388993 82.16968172 -33.3125 77.0546875 C-29.61053909 68.67777326 -25.94672797 60.28668264 -22.35717773 51.86083984 C-18.51027246 42.8314863 -14.5992688 33.83002133 -10.69091797 24.82714844 C-7.10412914 16.56121541 -3.54254443 8.28497014 0 0 Z " fill="#9E2F31" transform="translate(264,225)"/>
<path d="M0 0 C1.16238095 0.00460896 2.32476191 0.00921793 3.52236652 0.01396656 C4.17013107 0.00969444 4.81789562 0.00542231 5.48528939 0.00102073 C7.66015691 -0.00722846 9.83310406 0.02030256 12.00779438 0.04761219 C13.56486687 0.04902227 15.1219427 0.04823147 16.67901325 0.04539967 C20.91039566 0.04396251 25.14107229 0.07340014 29.37229037 0.10826945 C33.79252898 0.13948338 38.212783 0.14245976 42.63311481 0.14839649 C51.00550597 0.16394959 59.37757148 0.20499775 67.7498191 0.25514394 C77.28049566 0.31099192 86.81118761 0.33851244 96.34198701 0.36362112 C115.94927723 0.41591243 135.5562741 0.50388309 155.16331196 0.61523914 C155.16331196 0.94523914 155.16331196 1.27523914 155.16331196 1.61523914 C139.10086206 1.78683605 123.03836246 1.95332793 106.97581196 2.11523914 C105.20883017 2.13305502 105.20883017 2.13305502 103.40615177 2.15123081 C68.65745316 2.50008784 33.91396977 2.78593307 -0.83668804 2.61523914 C-2.11270135 5.11270937 -3.38254976 7.6130185 -4.64918804 10.11523914 C-5.00561382 10.81133289 -5.3620396 11.50742664 -5.72926617 12.22461414 C-7.80170119 16.33145786 -9.58238574 20.43447996 -11.14607525 24.75967884 C-12.14786693 27.45132443 -13.35365193 30.03056811 -14.57887554 32.62695789 C-15.08805523 33.71557117 -15.59723492 34.80418446 -16.12184429 35.92578602 C-17.17279596 38.15808998 -18.22486014 40.38987056 -19.27809429 42.62109852 C-22.3863673 49.2721764 -25.21690246 55.96136968 -27.79347515 62.83667469 C-29.4856271 67.34366775 -31.15490971 71.59257165 -33.83668804 75.61523914 C-34.49826847 77.66107993 -34.49826847 77.66107993 -34.96168804 79.80273914 C-35.25043804 81.06086414 -35.53918804 82.31898914 -35.83668804 83.61523914 C-36.49668804 83.61523914 -37.15668804 83.61523914 -37.83668804 83.61523914 C-37.29797308 77.84023378 -35.64504714 73.27757665 -33.25856304 68.01758289 C-32.89531429 67.19784489 -32.53206554 66.37810688 -32.15780926 65.53352833 C-30.97542584 62.8696269 -29.78115392 60.21124185 -28.58668804 57.55273914 C-27.76796271 55.71428833 -26.95017987 53.87541752 -26.1333189 52.03613758 C-24.89626046 49.25079603 -23.65867751 46.46570674 -22.41784954 43.68204212 C-19.86071019 37.9421321 -17.3379179 32.18893854 -14.85621929 26.41602039 C-14.55668346 25.71972019 -14.25714764 25.02341999 -13.94853497 24.30601978 C-12.82704864 21.69644558 -11.70686331 19.08633997 -10.59218121 16.4738512 C-9.84467446 14.72281227 -9.09274007 12.97366544 -8.34059429 11.22461414 C-7.71906475 9.77006824 -7.71906475 9.77006824 -7.08497906 8.28613758 C-6.67304302 7.4047411 -6.26110699 6.52334461 -5.83668804 5.61523914 C-5.44709754 4.74755311 -5.05750704 3.87986708 -4.65611076 2.98588753 C-2.83668804 0.61523914 -2.83668804 0.61523914 0 0 Z " fill="#973131" transform="translate(194.836688041687,393.3847608566284)"/>
<path d="M0 0 C0.90621094 0.16886719 1.81242187 0.33773438 2.74609375 0.51171875 C8.703125 1.703125 8.703125 1.703125 11 4 C6.9404105 4.86374245 4.01835673 5.15287004 0 4.0625 C-9.08422594 1.77196619 -19.10952635 2.0969882 -28 5 C-25.01199098 13.11682396 -25.01199098 13.11682396 -20 20 C-20.99 20.66 -21.98 21.32 -23 22 C-23.495 23.485 -23.495 23.485 -24 25 C-26 26 -28 27 -30 28 C-35.51658142 32.8093274 -39.95204196 38.92806294 -44 45 C-44.495 44.505 -44.495 44.505 -45 44 C-50.03284276 44.51030091 -54.82656027 45.6461964 -59.6875 47 C-60.98301645 47.35437318 -62.27858778 47.70854577 -63.57421875 48.0625 C-65.50329046 48.59041016 -67.42807209 49.13767142 -69.33203125 49.75 C-69.88246094 49.8325 -70.43289063 49.915 -71 50 C-71.66 49.34 -72.32 48.68 -73 48 C-66.82268849 45.46999923 -61.20248471 43.87025072 -54.5625 43.0625 C-45.62747186 41.42804363 -41.70146474 36.39653012 -36.30615234 29.60644531 C-34.45863313 27.33416934 -32.44279085 25.25900322 -30.375 23.1875 C-29.76398438 22.56230469 -29.15296875 21.93710937 -28.5234375 21.29296875 C-27 20 -27 20 -25 20 C-25.27714844 19.32453125 -25.55429687 18.6490625 -25.83984375 17.953125 C-26.38318359 16.61507813 -26.38318359 16.61507813 -26.9375 15.25 C-27.29714844 14.36828125 -27.65679687 13.4865625 -28.02734375 12.578125 C-28.85356576 10.38813896 -29.49369943 8.28101729 -30 6 C-31.98 6 -33.96 6 -36 6 C-35.34 5.34 -34.68 4.68 -34 4 C-33.01 4 -32.02 4 -31 4 C-31 3.01 -31 2.02 -31 1 C-21.07083837 -3.45352103 -10.3652615 -2.0730523 0 0 Z " fill="#434641" transform="translate(496,403)"/>
<path d="M0 0 C0.66 0.33 1.32 0.66 2 1 C2.47146866 19.23737485 2.43127598 36.36781077 -6 53 C-6.49242187 53.97195313 -6.98484375 54.94390625 -7.4921875 55.9453125 C-13.45097777 66.86500949 -22.04133143 78.6499188 -33 85 C-36.5625 85.9375 -36.5625 85.9375 -39 86 C-36.21079869 83.03647361 -33.44540011 80.54537167 -30.125 78.1875 C-25.73741629 74.9523773 -22.36937506 71.2673634 -19 67 C-18.13568359 65.92492187 -18.13568359 65.92492187 -17.25390625 64.828125 C-11.75340588 57.52679266 -8.43126545 49.40607888 -5 41 C-5.99 41 -6.98 41 -8 41 C-8 36.38 -8 31.76 -8 27 C-7.67 27 -7.34 27 -7 27 C-7 31.29 -7 35.58 -7 40 C-6.01 39.67 -5.02 39.34 -4 39 C-3.68575214 37.31282461 -3.37369845 35.62524051 -3.0625 33.9375 C-2.88847656 32.99777344 -2.71445312 32.05804688 -2.53515625 31.08984375 C-1.31794932 24.06202855 -0.73424658 17.17955333 -0.4375 10.0625 C-0.37272461 8.6074707 -0.37272461 8.6074707 -0.30664062 7.12304688 C-0.20137907 4.74881399 -0.09924293 2.37449079 0 0 Z " fill="#222117" transform="translate(565,477)"/>
<path d="M0 0 C0 0.99 0 1.98 0 3 C-0.60884033 3.17539307 -1.21768066 3.35078613 -1.8449707 3.53149414 C-22.1196907 9.45222639 -36.57657717 17.37936192 -50 34 C-50.66 33.01 -51.32 32.02 -52 31 C-46.15560093 17.66278161 -28.77156273 8.45106371 -16 3 C-10.63696586 0.99739602 -5.78884441 -0.45701403 0 0 Z " fill="#36332A" transform="translate(465,404)"/>
<path d="M0 0 C1.98 0 3.96 0 6 0 C6.33 1.65 6.66 3.3 7 5 C8.99983534 4.20882096 8.99983534 4.20882096 11 3 C11.33 2.01 11.66 1.02 12 0 C19.42686315 -0.10331031 26.63512596 0.00137301 34 1 C34 1.66 34 2.32 34 3 C33.01 3 32.02 3 31 3 C31 3.66 31 4.32 31 5 C32.32 5.66 33.64 6.32 35 7 C32.59564994 8.20217503 31.31618631 8.03897118 28.6484375 7.87890625 C27.79765625 7.83056641 26.946875 7.78222656 26.0703125 7.73242188 C25.18085938 7.67634766 24.29140625 7.62027344 23.375 7.5625 C22.4778125 7.51029297 21.580625 7.45808594 20.65625 7.40429688 C18.43715988 7.2744565 16.21850129 7.13948661 14 7 C13.67 7.66 13.34 8.32 13 9 C11.68 8.34 10.36 7.68 9 7 C9 7.66 9 8.32 9 9 C6.69 9 4.38 9 2 9 C0.50178941 5.62902617 0 3.79557881 0 0 Z " fill="#F3E57F" transform="translate(470,411)"/>
<path d="M0 0 C1.9375 0.625 1.9375 0.625 4 2 C5.046875 4.64453125 5.046875 4.64453125 5 8 C3.13480976 10.73628491 0.76030542 12.84964554 -1.6875 15.0625 C-2.96435255 16.25946874 -4.23914142 17.45864322 -5.51171875 18.66015625 C-6.12063965 19.22492676 -6.72956055 19.78969727 -7.35693359 20.37158203 C-9.20278546 22.12260486 -9.20278546 22.12260486 -11.20703125 24.93359375 C-11.79871094 25.61550781 -12.39039063 26.29742187 -13 27 C-14.32 27 -15.64 27 -17 27 C-16.505 22.545 -16.505 22.545 -16 18 C-15.05125 17.79375 -14.1025 17.5875 -13.125 17.375 C-9.74922382 16.3249963 -9.74922382 16.3249963 -8.875 13.1875 C-8.58625 12.135625 -8.2975 11.08375 -8 10 C-5.88210462 7.06227415 -3.55225642 4.55225642 -1 2 C-0.67 1.34 -0.34 0.68 0 0 Z " fill="#EFE48E" transform="translate(463,417)"/>
<path d="M0 0 C0.99 0.350625 1.98 0.70125 3 1.0625 C8.01361019 2.50365921 12.32848722 1.60536743 17.37890625 0.4609375 C20.24341599 -0.04280639 22.9063123 -0.09751431 25.8125 -0.0625 C27.27623047 -0.04896484 27.27623047 -0.04896484 28.76953125 -0.03515625 C29.87361328 -0.01775391 29.87361328 -0.01775391 31 0 C31 0.33 31 0.66 31 1 C28.43850372 1.50567729 25.87600535 2.00470132 23.3125 2.5 C22.2306543 2.71462891 22.2306543 2.71462891 21.12695312 2.93359375 C20.06831055 3.13662109 20.06831055 3.13662109 18.98828125 3.34375 C18.34415283 3.46943359 17.70002441 3.59511719 17.03637695 3.72460938 C15 4 15 4 10 4 C10 13.9 10 23.8 10 34 C8.35 34 6.7 34 5 34 C5.02618408 33.13721436 5.05236816 32.27442871 5.0793457 31.38549805 C5.16459818 28.1819475 5.22726268 24.97897504 5.2746582 21.7746582 C5.29979219 20.38839696 5.33390592 19.00226813 5.37719727 17.61645508 C5.43788396 15.62378963 5.46354879 13.63015467 5.48828125 11.63671875 C5.51446533 10.43748779 5.54064941 9.23825684 5.56762695 8.00268555 C5.31986078 4.7865072 5.31986078 4.7865072 2.46948242 3.21020508 C1.65455322 2.8108374 0.83962402 2.41146973 0 2 C0 1.34 0 0.68 0 0 Z " fill="#62615E" transform="translate(497,427)"/>
<path d="M0 0 C0.90621094 0.16886719 1.81242187 0.33773438 2.74609375 0.51171875 C8.703125 1.703125 8.703125 1.703125 11 4 C6.9404105 4.86374245 4.01835673 5.15287004 0 4.0625 C-8.96266226 1.80261775 -19.26000929 1.9152974 -28 5 C-28.66 5.66 -29.32 6.32 -30 7 C-33.125 6.625 -33.125 6.625 -36 6 C-35.34 5.34 -34.68 4.68 -34 4 C-33.01 4 -32.02 4 -31 4 C-31 3.01 -31 2.02 -31 1 C-21.07083837 -3.45352103 -10.3652615 -2.0730523 0 0 Z " fill="#424636" transform="translate(496,403)"/>
<path d="M0 0 C1.66469051 5.11864021 -0.6265673 9.24729021 -2.91796875 13.83984375 C-3.23378906 14.44957031 -3.54960937 15.05929688 -3.875 15.6875 C-5.61720922 19.06672846 -6.98433637 22.50040869 -8.3125 26.0625 C-10.45797651 31.77491424 -12.92720971 37.25367036 -15.55175781 42.75512695 C-17.03594497 45.88112487 -18.43200303 48.97891705 -19.5625 52.25 C-21.3873685 57.47050989 -24.27735996 62.20674374 -27 67 C-27.33 66.34 -27.66 65.68 -28 65 C-26.87348631 62.02500805 -25.66907468 59.15244387 -24.375 56.25 C-23.54296701 54.34765701 -22.71093587 52.44531321 -21.87890625 50.54296875 C-21.42016113 49.50188965 -20.96141602 48.46081055 -20.48876953 47.38818359 C-18.02087546 41.77168081 -15.59041885 36.13899724 -13.15484619 30.50842285 C-12.33599086 28.61676677 -11.51571726 26.72573353 -10.69482422 24.83496094 C-7.10589175 16.56678741 -3.54368721 8.28764278 0 0 Z " fill="#AF2A2D" transform="translate(264,225)"/>
<path d="M0 0 C1.32 0 2.64 0 4 0 C3.52269162 1.4589426 3.04308958 2.91713496 2.5625 4.375 C2.29566406 5.18710937 2.02882813 5.99921875 1.75390625 6.8359375 C1 9 1 9 0 11 C-0.61875 11.28875 -1.2375 11.5775 -1.875 11.875 C-4.14117198 12.86728272 -4.14117198 12.86728272 -5.4375 15.0625 C-7.4793896 17.59444311 -8.85240192 17.47540032 -12 18 C-14.74572728 19.47987963 -14.74572728 19.47987963 -17 21 C-16.42183508 17.76367597 -15.52855557 16.17042237 -13.1640625 13.90625 C-12.59429688 13.35066406 -12.02453125 12.79507813 -11.4375 12.22265625 C-10.839375 11.65417969 -10.24125 11.08570313 -9.625 10.5 C-8.44825425 9.36693259 -7.27370787 8.2315758 -6.1015625 7.09375 C-5.55145508 6.56265625 -5.00134766 6.0315625 -4.43457031 5.484375 C-2.85684078 3.93235799 -2.85684078 3.93235799 -1.3359375 1.59375 C-0.89507813 1.0678125 -0.45421875 0.541875 0 0 Z " fill="#B2930A" transform="translate(556,519)"/>
<path d="M0 0 C0.99 0.33 1.98 0.66 3 1 C3.33 2.65 3.66 4.3 4 6 C4.99 6.33 5.98 6.66 7 7 C6.3196167 8.04510742 6.3196167 8.04510742 5.62548828 9.11132812 C3.92852198 12.12702433 2.96014464 14.90089384 1.9921875 18.21875 C1.64542969 19.39824219 1.29867188 20.57773437 0.94140625 21.79296875 C0.58949219 23.01628906 0.23757813 24.23960937 -0.125 25.5 C-0.48464844 26.72332031 -0.84429687 27.94664062 -1.21484375 29.20703125 C-3.35766652 36.54198699 -3.35766652 36.54198699 -5 44 C-5.99 43.67 -6.98 43.34 -8 43 C-7.06364881 39.70800547 -6.12570137 36.41646767 -5.1875 33.125 C-4.92646484 32.2071875 -4.66542969 31.289375 -4.39648438 30.34375 C-2.84848557 24.91619863 -1.25442081 19.50826725 0.42529297 14.11987305 C1.76236002 9.18794729 1.14543287 5.55904486 -1 1 C-0.67 0.67 -0.34 0.34 0 0 Z " fill="#4B4325" transform="translate(466,462)"/>
<path d="M0 0 C0.33 0.99 0.66 1.98 1 3 C0.01 4.485 0.01 4.485 -1 6 C-3.64453125 6.44140625 -3.64453125 6.44140625 -6.8125 6.5625 C-11.00692788 6.73444549 -14.17267553 7.23844031 -18 9 C-18 7.02 -18 5.04 -18 3 C-4.89320388 -1.63106796 -4.89320388 -1.63106796 0 0 Z " fill="#F3E785" transform="translate(488,468)"/>
<path d="M0 0 C9.72833556 -0.77209012 20.22676808 1.61338404 29 6 C28.67 6.66 28.34 7.32 28 8 C27.23429688 7.67257812 26.46859375 7.34515625 25.6796875 7.0078125 C20.7668961 5.66227091 16.19021001 5.78577543 11.125 5.875 C10.15046875 5.88402344 9.1759375 5.89304687 8.171875 5.90234375 C5.78099272 5.92578377 3.39062739 5.95859558 1 6 C1 5.01 1 4.02 1 3 C1.99 3 2.98 3 4 3 C4 2.34 4 1.68 4 1 C2.68 0.67 1.36 0.34 0 0 Z " fill="#F1E557" transform="translate(486,406)"/>
<path d="M0 0 C1.63001953 0.01353516 1.63001953 0.01353516 3.29296875 0.02734375 C4.12441406 0.03894531 4.95585937 0.05054688 5.8125 0.0625 C9.8125 6.8125 9.8125 6.8125 9.8125 9.0625 C5.241221 8.51394652 1.13814205 7.64505197 -3.1875 6.0625 C-3.1875 5.4025 -3.1875 4.7425 -3.1875 4.0625 C-6.1575 3.5675 -6.1575 3.5675 -9.1875 3.0625 C-9.1875 2.4025 -9.1875 1.7425 -9.1875 1.0625 C-5.90230525 -0.03256492 -3.45086585 -0.03710608 0 0 Z " fill="#F0E9AD" transform="translate(496.1875,419.9375)"/>
<path d="M0 0 C0.66 0.33 1.32 0.66 2 1 C2.3542772 14.70416878 2.02191845 27.59923069 -1 41 C-1.99 40.34 -2.98 39.68 -4 39 C-3.86722656 38.28714844 -3.73445312 37.57429687 -3.59765625 36.83984375 C-3.42105469 35.88207031 -3.24445312 34.92429687 -3.0625 33.9375 C-2.88847656 32.99777344 -2.71445312 32.05804688 -2.53515625 31.08984375 C-1.31794932 24.06202855 -0.73424658 17.17955333 -0.4375 10.0625 C-0.39431641 9.09248047 -0.35113281 8.12246094 -0.30664062 7.12304688 C-0.20137907 4.74881399 -0.09924293 2.37449079 0 0 Z " fill="#1C2823" transform="translate(565,477)"/>
<path d="M0 0 C0.33 0 0.66 0 1 0 C0.4886299 5.31824904 -0.8989757 9.46942571 -3.3125 14.25 C-5.96110614 19.68116478 -8.253862 25.08845664 -10.17578125 30.828125 C-11 33 -11 33 -13 36 C-13.66158043 38.04584079 -13.66158043 38.04584079 -14.125 40.1875 C-14.41375 41.445625 -14.7025 42.70375 -15 44 C-15.66 44 -16.32 44 -17 44 C-16.45773005 38.18322853 -14.77222539 33.5367297 -12.40234375 28.22265625 C-12.04862198 27.41130722 -11.69490021 26.59995819 -11.33045959 25.76402283 C-10.20749624 23.19324512 -9.0727218 20.62788458 -7.9375 18.0625 C-7.17043566 16.31219422 -6.40415133 14.56154637 -5.63867188 12.81054688 C-3.76811665 8.5363539 -1.88695655 4.26697603 0 0 Z " fill="#AB2B2D" transform="translate(174,433)"/>
<path d="M0 0 C5.18982101 3.51076127 9.20712714 7.48939906 13.24609375 12.2421875 C15.96170314 15.41510326 18.79677714 18.47848687 21.62109375 21.5546875 C23.125 23.4375 23.125 23.4375 23.125 25.4375 C24.775 25.4375 26.425 25.4375 28.125 25.4375 C28.125 25.7675 28.125 26.0975 28.125 26.4375 C26.475 26.4375 24.825 26.4375 23.125 26.4375 C22.795 27.7575 22.465 29.0775 22.125 30.4375 C21.91101563 29.58929688 21.69703125 28.74109375 21.4765625 27.8671875 C19.81549175 23.65210046 17.49365645 20.9063213 14.5 17.5625 C13.96165527 16.95188721 13.42331055 16.34127441 12.86865234 15.7121582 C11.29863946 13.94348967 9.71372951 12.18934874 8.125 10.4375 C7.34640625 9.56222656 6.5678125 8.68695313 5.765625 7.78515625 C2.72669247 4.52831577 0.97283056 2.6797373 -3.375 1.4375 C-4.2 1.4375 -5.025 1.4375 -5.875 1.4375 C-2.48106061 -0.74431818 -2.48106061 -0.74431818 0 0 Z " fill="#403E2C" transform="translate(505.875,460.5625)"/>
<path d="M0 0 C9.27396394 3.93229991 9.27396394 3.93229991 12.125 8.125 C13 11 13 11 13 14 C11.02 14 9.04 14 7 14 C7 12.35 7 10.7 7 9 C6.030625 8.525625 5.06125 8.05125 4.0625 7.5625 C1 6 1 6 0 5 C-0.04063832 3.33382885 -0.042721 1.66611905 0 0 Z " fill="#DFCE49" transform="translate(516,413)"/>
<path d="M0 0 C0.66 0 1.32 0 2 0 C1.35891863 1.67667436 0.68528045 3.34089996 0 5 C-0.36351562 6.00289062 -0.72703125 7.00578125 -1.1015625 8.0390625 C-3.23878693 11.37242899 -4.64441222 11.97990853 -8.4453125 12.84863281 C-9.14398438 12.98108398 -9.84265625 13.11353516 -10.5625 13.25 C-11.28050781 13.4056543 -11.99851562 13.56130859 -12.73828125 13.72167969 C-14.16969993 14.0286881 -15.60349134 14.32486334 -17.03955078 14.609375 C-18.69776829 14.93977948 -20.34810985 15.30934463 -21.99609375 15.6875 C-27.09956677 16.83399004 -31.77244925 17.19361299 -37 17 C-37.33 16.34 -37.66 15.68 -38 15 C-36.56720703 15.061875 -36.56720703 15.061875 -35.10546875 15.125 C-30.35976022 15.125 -25.91774582 14.05917075 -21.3125 13 C-19.64276838 12.6212716 -17.97221693 12.2461356 -16.30078125 11.875 C-15.57028564 11.70742188 -14.83979004 11.53984375 -14.0871582 11.3671875 C-12 11 -12 11 -8 11 C-8 10.01 -8 9.02 -8 8 C-6.33720673 6.9935725 -4.67016516 5.99414593 -3 5 C-1.73195434 2.9664052 -1.73195434 2.9664052 -1 1 C-0.67 0.67 -0.34 0.34 0 0 Z " fill="#B69D16" transform="translate(520,513)"/>
<path d="M0 0 C0.7528125 0.08765625 1.505625 0.1753125 2.28125 0.265625 C4.61453985 0.77500518 6.3912872 1.6513894 8.5 2.75 C5.44131492 3.76193629 2.37750729 4.7573937 -0.6875 5.75 C-1.55181641 6.03617187 -2.41613281 6.32234375 -3.30664062 6.6171875 C-4.14775391 6.88789063 -4.98886719 7.15859375 -5.85546875 7.4375 C-7.01018677 7.81455078 -7.01018677 7.81455078 -8.18823242 8.19921875 C-10.69796587 8.79716559 -12.92922995 8.84543462 -15.5 8.75 C-13.18143083 7.20428722 -10.99361571 5.95381448 -8.5 4.75 C-8.5 3.76 -8.5 2.77 -8.5 1.75 C-5.42970153 -0.06426728 -3.52714249 -0.45901169 0 0 Z " fill="#DDC61F" transform="translate(444.5,503.25)"/>
<path d="M0 0 C0.99 0.350625 1.98 0.70125 3 1.0625 C8.01361019 2.50365921 12.32848722 1.60536743 17.37890625 0.4609375 C20.24341599 -0.04280639 22.9063123 -0.09751431 25.8125 -0.0625 C27.27623047 -0.04896484 27.27623047 -0.04896484 28.76953125 -0.03515625 C29.87361328 -0.01775391 29.87361328 -0.01775391 31 0 C31 0.33 31 0.66 31 1 C24.07 2.32 17.14 3.64 10 5 C9.67 6.65 9.34 8.3 9 10 C7.2898442 8.37128019 5.86650942 6.81088835 4.5 4.875 C3.05041536 2.71499886 3.05041536 2.71499886 0 2 C0 1.34 0 0.68 0 0 Z " fill="#656350" transform="translate(497,427)"/>
<path d="M0 0 C-4.11834003 0.87624256 -7.04712899 1.13551636 -11.125 0.03125 C-16.15398613 -1.16011068 -20.91637685 -1.22880078 -26.0625 -1.125 C-26.92810547 -1.11597656 -27.79371094 -1.10695313 -28.68554688 -1.09765625 C-30.79048779 -1.07439723 -32.89528342 -1.03854008 -35 -1 C-31.93732073 -4.06267927 -28.25094025 -3.56161353 -24.125 -3.75 C-23.27107666 -3.79165283 -22.41715332 -3.83330566 -21.53735352 -3.8762207 C-4.51064663 -4.51064663 -4.51064663 -4.51064663 0 0 Z " fill="#4F513C" transform="translate(507,407)"/>
<path d="M0 0 C2.27358907 2.92707575 4.21095508 5.95341832 6.125 9.125 C10.32225483 15.79228113 15.44333827 21.44333827 21 27 C20.01 27.33 19.02 27.66 18 28 C11.47058951 21.32341017 6.27672171 14.72279295 1.59375 6.65234375 C0.12187385 3.96060354 0.12187385 3.96060354 -2 2 C-1.34 2 -0.68 2 0 2 C0 1.34 0 0.68 0 0 Z " fill="#3D351A" transform="translate(410,486)"/>
<path d="M0 0 C0.99 0.66 1.98 1.32 3 2 C1.29231534 3.70768466 -0.41559272 5.41513286 -2.125 7.12109375 C-3.65534608 8.65462805 -5.17326752 10.20055281 -6.6875 11.75 C-8.69974483 13.70785984 -10.70789225 15.38703529 -13 17 C-12.69029106 11.61506072 -9.64569893 9.17532596 -5.9375 5.6875 C-5.08575195 4.86282227 -5.08575195 4.86282227 -4.21679688 4.02148438 C-2.82009075 2.67172635 -1.41121163 1.33458475 0 0 Z " fill="#806903" transform="translate(545,541)"/>
<path d="M0 0 C-9.30184516 3.21492344 -19.12109863 5.24094881 -29 5 C-29 4.34 -29 3.68 -29 3 C-24.92117553 2.10301562 -20.83650398 1.23626099 -16.75 0.375 C-15.59113281 0.11976563 -14.43226563 -0.13546875 -13.23828125 -0.3984375 C-12.12324219 -0.63046875 -11.00820313 -0.8625 -9.859375 -1.1015625 C-8.83295898 -1.32150879 -7.80654297 -1.54145508 -6.74902344 -1.76806641 C-3.75391255 -2.02076226 -2.48876807 -1.60884798 0 0 Z " fill="#4C3D15" transform="translate(513,527)"/>
<path d="M0 0 C0.99 1.32 1.98 2.64 3 4 C2.484375 4.53625 1.96875 5.0725 1.4375 5.625 C-0.26340723 7.95634573 -0.26340723 7.95634573 0.0625 10.9375 C1.42235576 15.3796955 3.8680204 17.96235203 7.25 21.0625 C9 23 9 23 9 27 C5.026647 25.675549 4.15208325 23.80979799 1.8125 20.375 C1.09707031 19.35148437 0.38164062 18.32796875 -0.35546875 17.2734375 C-3.38723176 11.23871684 -1.98591594 6.08186758 0 0 Z " fill="#C7B118" transform="translate(413,475)"/>
<path d="M0 0 C-0.99 0.495 -0.99 0.495 -2 1 C-1.2236068 4.0745356 -1.2236068 4.0745356 1 6 C-0.8125 6.625 -0.8125 6.625 -3 7 C-3.99 6.34 -4.98 5.68 -6 5 C-6.99 5.495 -6.99 5.495 -8 6 C-9.67654729 5.72057545 -11.34608154 5.39171753 -13 5 C-13 3.68 -13 2.36 -13 1 C-8.59085217 -0.10228696 -4.51617599 -0.07654536 0 0 Z " fill="#F0E796" transform="translate(520,430)"/>
<path d="M0 0 C0.515625 0.66 1.03125 1.32 1.5625 2 C5.19992503 6.47683081 8.91907389 10.91907389 13 15 C15.89883083 15.24339551 15.89883083 15.24339551 19.125 15.125 C20.76855469 15.09792969 20.76855469 15.09792969 22.4453125 15.0703125 C23.28835938 15.04710937 24.13140625 15.02390625 25 15 C24.67 15.66 24.34 16.32 24 17 C20.7 17 17.4 17 14 17 C13.67 17.99 13.34 18.98 13 20 C12.34 19.67 11.68 19.34 11 19 C11 18.01 11 17.02 11 16 C9.5876273 14.85665067 8.17150792 13.71753589 6.734375 12.60546875 C3.48458228 9.59721468 1.30455391 5.75102924 -1 2 C-0.67 1.34 -0.34 0.68 0 0 Z " fill="#44360D" transform="translate(469,554)"/>
<path d="M0 0 C3.28810259 0.56691424 5.0276443 1.26559777 7 4 C7.29296875 7.35546875 7.29296875 7.35546875 7.1875 11.1875 C7.16042969 12.45980469 7.13335937 13.73210938 7.10546875 15.04296875 C7.07066406 16.01878906 7.03585937 16.99460937 7 18 C6.01 18 5.02 18 4 18 C4.06960938 16.77023437 4.06960938 16.77023437 4.140625 15.515625 C4.17671875 14.43796875 4.2128125 13.3603125 4.25 12.25 C4.29640625 11.18265625 4.3428125 10.1153125 4.390625 9.015625 C3.91361855 5.33313521 2.73078458 4.38674872 0 2 C0 1.34 0 0.68 0 0 Z " fill="#D8C01E" transform="translate(421,509)"/>
<path d="M0 0 C0.33 0.66 0.66 1.32 1 2 C-2.41635512 2.9802559 -5.83313745 3.95901446 -9.25 4.9375 C-10.21808594 5.21529297 -11.18617188 5.49308594 -12.18359375 5.77929688 C-13.58544922 6.18051758 -13.58544922 6.18051758 -15.015625 6.58984375 C-15.87446289 6.83597412 -16.73330078 7.08210449 -17.61816406 7.33569336 C-18.40416992 7.55491455 -19.19017578 7.77413574 -20 8 C-20.72155273 8.23533447 -21.44310547 8.47066895 -22.18652344 8.71313477 C-23.08419434 8.85513306 -23.08419434 8.85513306 -24 9 C-24.66 8.34 -25.32 7.68 -26 7 C-17.46709498 3.50523432 -9.04226944 1.61076865 0 0 Z " fill="#6A633B" transform="translate(449,444)"/>
<path d="M0 0 C1.99071567 1.99071567 2.77938486 3.39415438 3.9453125 5.9140625 C4.29980469 6.67460938 4.65429688 7.43515625 5.01953125 8.21875 C5.38433594 9.0128125 5.74914062 9.806875 6.125 10.625 C6.49753906 11.42679688 6.87007813 12.22859375 7.25390625 13.0546875 C8.17318995 15.03468316 9.0883743 17.01646972 10 19 C8.68 19 7.36 19 6 19 C4.7947778 16.77890472 3.61112596 14.5502135 2.4375 12.3125 C2.09525391 11.68666016 1.75300781 11.06082031 1.40039062 10.41601562 C-0.16044313 7.4047101 -1.04450625 5.46152368 -0.71484375 2.04296875 C-0.47894531 1.36878906 -0.24304688 0.69460938 0 0 Z " fill="#2A2B16" transform="translate(400,518)"/>
<path d="M0 0 C2.0625 0.4375 2.0625 0.4375 4 1 C3.67 1.66 3.34 2.32 3 3 C3.70125 2.7525 4.4025 2.505 5.125 2.25 C9.14531402 1.90040748 10.88338362 3.60817813 14 6 C13.01 7.485 13.01 7.485 12 9 C11.01 9 10.02 9 9 9 C8.773125 8.360625 8.54625 7.72125 8.3125 7.0625 C7.14749104 4.72806339 7.14749104 4.72806339 4.375 4.25 C3.59125 4.1675 2.8075 4.085 2 4 C1.67 4.66 1.34 5.32 1 6 C0.34 4.35 -0.32 2.7 -1 1 C-0.67 0.67 -0.34 0.34 0 0 Z " fill="#EEE06F" transform="translate(468,407)"/>
<path d="M0 0 C0.12375 0.639375 0.2475 1.27875 0.375 1.9375 C0.58125 2.618125 0.7875 3.29875 1 4 C1.66 4.33 2.32 4.66 3 5 C-3.04996253 8.26305849 -7.23442888 9.89910768 -14 8 C-15.5 5.9375 -15.5 5.9375 -16 4 C-14.515 4.99 -14.515 4.99 -13 6 C-9.0503643 5.65655342 -5.54895422 4.77447711 -2 3 C-1.34 2.01 -0.68 1.02 0 0 Z " fill="#5D4B09" transform="translate(432,540)"/>
<path d="M0 0 C4.19360449 0.67097672 7.40334352 2.8558394 11 5 C10.67 5.99 10.34 6.98 10 8 C4.28062041 6.14506608 -1.35555275 4.06896109 -7 2 C-3.98968256 1.06576355 -3.13349732 0.95550089 0 2 C0 1.34 0 0.68 0 0 Z " fill="#49553D" transform="translate(511,407)"/>
<path d="M0 0 C0.66 0 1.32 0 2 0 C1.77093046 2.08573846 1.51590108 4.16863641 1.25 6.25 C1.04117187 7.99023438 1.04117187 7.99023438 0.828125 9.765625 C-0.08870483 13.34645095 -1.18335502 14.68714518 -4 17 C-5.6852084 12.92320841 -4.16939007 10.16924407 -2.5625 6.25 C-2.08941406 5.07953125 -1.61632812 3.9090625 -1.12890625 2.703125 C-0.75636719 1.81109375 -0.38382812 0.9190625 0 0 Z " fill="#D4C12B" transform="translate(419,459)"/>
<path d="M0 0 C0.66 0.33 1.32 0.66 2 1 C0.64438583 5.06684251 -1.40067414 5.75891031 -5 8 C-8.75131643 10.40084252 -11.96461041 12.7311189 -15 16 C-15.66 15.67 -16.32 15.34 -17 15 C-11.67248457 9.45050476 -6.32532275 4.39497902 0 0 Z " fill="#E1D036" transform="translate(436,417)"/>
<path d="M0 0 C0 0.99 0 1.98 0 3 C-4.1205746 4.99785435 -7.45194365 5.17835515 -12 5 C-12 4.01 -12 3.02 -12 2 C-7.82262526 0.40861915 -4.46839215 -0.21278058 0 0 Z " fill="#2C2B2F" transform="translate(465,404)"/>
<path d="M0 0 C0 0.33 0 0.66 0 1 C-1.258125 1.185625 -2.51625 1.37125 -3.8125 1.5625 C-6.41870604 2.1852218 -7.63060889 2.47900211 -9.19921875 4.69140625 C-10.12538373 6.83259076 -10.12538373 6.83259076 -11 10 C-10.01 10.33 -9.02 10.66 -8 11 C-8.99 11.495 -8.99 11.495 -10 12 C-10.99 11.67 -11.98 11.34 -13 11 C-12.67816308 7.652896 -12.28066756 4.68412718 -11 1.5625 C-7.7187145 -1.0010043 -4.00991708 -0.30263525 0 0 Z " fill="#BEA412" transform="translate(493,532)"/>
<path d="M0 0 C0.33 0 0.66 0 1 0 C1 4.29 1 8.58 1 13 C2.65 13 4.3 13 6 13 C5.375 19.625 5.375 19.625 2 23 C2.495 18.545 2.495 18.545 3 14 C2.01 14 1.02 14 0 14 C0 9.38 0 4.76 0 0 Z " fill="#36311A" transform="translate(557,504)"/>
<path d="M0 0 C2.92879371 0.62759865 5.36095629 1.58622659 8 3 C8 3.66 8 4.32 8 5 C10.97 5.495 10.97 5.495 14 6 C9.60155678 7.37344385 6.07495445 6.24307502 1.75 5.0625 C1.00492187 4.86720703 0.25984375 4.67191406 -0.5078125 4.47070312 C-2.34079386 3.98895802 -4.17071818 3.49560775 -6 3 C-6 2.67 -6 2.34 -6 2 C-4.02 2 -2.04 2 0 2 C0 1.34 0 0.68 0 0 Z " fill="#DDD68F" transform="translate(479,418)"/>
<path d="M0 0 C-0.33 1.98 -0.66 3.96 -1 6 C-1.556875 5.855625 -2.11375 5.71125 -2.6875 5.5625 C-4.30352638 5.1694125 -5.93013655 4.81850994 -7.5625 4.5 C-10 4 -10 4 -13 3 C-4.57142857 -0.42857143 -4.57142857 -0.42857143 0 0 Z " fill="#E0D665" transform="translate(451,446)"/>
<path d="M0 0 C3 1 3 1 4.38671875 3.50390625 C4.81597656 4.51324219 5.24523437 5.52257812 5.6875 6.5625 C6.12449219 7.57441406 6.56148438 8.58632813 7.01171875 9.62890625 C7.33785156 10.41136719 7.66398437 11.19382812 8 12 C5.69 13.98 3.38 15.96 1 18 C0.34 17.67 -0.32 17.34 -1 17 C0.28965176 15.62437146 1.62689293 14.29233607 3 13 C3.66 13 4.32 13 5 13 C4.72285156 12.31292969 4.44570313 11.62585938 4.16015625 10.91796875 C3.79792969 10.01691406 3.43570312 9.11585938 3.0625 8.1875 C2.70285156 7.29417969 2.34320313 6.40085937 1.97265625 5.48046875 C1.26386514 3.6729091 0.6139753 1.84192591 0 0 Z " fill="#52513D" transform="translate(466,410)"/>
<path d="M0 0 C2.50037734 2.17424117 3.43628586 3.73045798 4 7 C3.01 6.67 2.02 6.34 1 6 C0.67 6.99 0.34 7.98 0 9 C-0.99 9.33 -1.98 9.66 -3 10 C-4 7 -4 7 -3.22265625 5.17578125 C-2.1484375 3.45052083 -1.07421875 1.72526042 0 0 Z " fill="#901D1E" transform="translate(291,164)"/>
<path d="M0 0 C2.0625 0.4375 2.0625 0.4375 4 1 C3.67 1.33 3.34 1.66 3 2 C7.29 2.33 11.58 2.66 16 3 C16 3.33 16 3.66 16 4 C14.78763672 4.07347656 14.78763672 4.07347656 13.55078125 4.1484375 C12.48214844 4.22320312 11.41351563 4.29796875 10.3125 4.375 C8.72888672 4.47941406 8.72888672 4.47941406 7.11328125 4.5859375 C4.09322731 4.98760089 1.75921946 5.74069019 -1 7 C-1.04254356 5.00045254 -1.04080783 2.99958364 -1 1 C-0.67 0.67 -0.34 0.34 0 0 Z " fill="#EDE177" transform="translate(471,470)"/>
<path d="M0 0 C-1.45044271 4.10958767 -3.51110752 7.43258745 -6 11 C-7.24386556 7.26840331 -6.77811718 4.81984796 -6 1 C-4 0 -4 0 0 0 Z " fill="#110F0B" transform="translate(484,531)"/>
<path d="M0 0 C1.9192037 5.90122497 -1.57823866 11.24420215 -4.1875 16.5 C-4.785625 17.655 -5.38375 18.81 -6 20 C-6.66 20 -7.32 20 -8 20 C-6.54884678 15.42111848 -4.79418096 11.02350565 -2.875 6.625 C-2.59785156 5.98433594 -2.32070313 5.34367188 -2.03515625 4.68359375 C-1.35899615 3.12143075 -0.67981293 1.56057685 0 0 Z " fill="#A22629" transform="translate(264,225)"/>
<path d="M0 0 C3.96 1.98 3.96 1.98 8 4 C8 4.66 8 5.32 8 6 C7.34 6 6.68 6 6 6 C5.67 6.66 5.34 7.32 5 8 C2.5 6.8125 2.5 6.8125 0 5 C-0.3125 2.3125 -0.3125 2.3125 0 0 Z " fill="#EDDE48" transform="translate(516,413)"/>
<path d="M0 0 C1.15242188 0.10183594 2.30484375 0.20367188 3.4921875 0.30859375 C4.36101562 0.39238281 5.22984375 0.47617187 6.125 0.5625 C5.795 1.2225 5.465 1.8825 5.125 2.5625 C-7.54470387 2.74701025 -7.54470387 2.74701025 -12.875 1.5625 C-12.875 1.2325 -12.875 0.9025 -12.875 0.5625 C-8.41295824 -0.3529645 -4.52954615 -0.41597873 0 0 Z " fill="#19211B" transform="translate(472.875,574.4375)"/>
<path d="M0 0 C0.33 0 0.66 0 1 0 C1.36504603 1.58086048 1.71660506 3.16483907 2.0625 4.75 C2.25972656 5.63171875 2.45695312 6.5134375 2.66015625 7.421875 C2.99825872 9.98679028 2.81158635 11.57091639 2 14 C-0.125 12.625 -0.125 12.625 -2 10 C-1.75143398 6.55249736 -0.93770846 3.31999482 0 0 Z " fill="#937A0D" transform="translate(429,525)"/>
<path d="M0 0 C0 0.66 0 1.32 0 2 C-5.94 2 -11.88 2 -18 2 C-12.11916915 -1.9205539 -6.72139044 -0.84833083 0 0 Z " fill="#293535" transform="translate(493,402)"/>
<path d="M0 0 C0.28571429 7.42857143 0.28571429 7.42857143 -2 11 C-2.99 10.67 -3.98 10.34 -5 10 C-4.38675022 3.49955237 -4.38675022 3.49955237 -2.5 1.0625 C-1 0 -1 0 0 0 Z " fill="#AC911C" transform="translate(563,506)"/>
<path d="M0 0 C0 0.99 0 1.98 0 3 C-0.763125 2.814375 -1.52625 2.62875 -2.3125 2.4375 C-5.08967375 1.77180827 -5.08967375 1.77180827 -8 3 C-9.37195574 4.29355827 -10.71182656 5.62298702 -12 7 C-12.33 5.68 -12.66 4.36 -13 3 C-4.738041 -1.77676538 -4.738041 -1.77676538 0 0 Z " fill="#CDB61C" transform="translate(411,490)"/>
<path d="M0 0 C0.99 0.33 1.98 0.66 3 1 C3.185625 2.7015625 3.185625 2.7015625 3.375 4.4375 C3.684375 6.2009375 3.684375 6.2009375 4 8 C4.66 8.33 5.32 8.66 6 9 C7.79401325 12.49360475 8.11665191 14.28574649 7 18 C3.81535981 12.06830376 1.34656975 6.6104333 0 0 Z " fill="#C05659" transform="translate(345,290)"/>
<path d="M0 0 C1.32 0.66 2.64 1.32 4 2 C1.14723863 4.93200474 -1.65079784 7.64315404 -5 10 C-5.66 9.67 -6.32 9.34 -7 9 C-6.57847656 8.51789063 -6.15695312 8.03578125 -5.72265625 7.5390625 C-5.17480469 6.90742188 -4.62695312 6.27578125 -4.0625 5.625 C-3.51722656 4.99851562 -2.97195313 4.37203125 -2.41015625 3.7265625 C-0.93041376 2.04367666 -0.93041376 2.04367666 0 0 Z " fill="#F4E785" transform="translate(463,417)"/>
<path d="M0 0 C5.45454545 -0.36363636 5.45454545 -0.36363636 7.875 1.25 C9 3 9 3 9 7 C8.01 7.33 7.02 7.66 6 8 C4.515 5.03 4.515 5.03 3 2 C2.01 2 1.02 2 0 2 C0 1.34 0 0.68 0 0 Z " fill="#E5D96C" transform="translate(462,416)"/>
<path d="M0 0 C0.99 0.33 1.98 0.66 3 1 C3.33 2.65 3.66 4.3 4 6 C4.99 6.33 5.98 6.66 7 7 C5.68 7.99 4.36 8.98 3 10 C-0.22265625 4.82421875 -0.22265625 4.82421875 -1 3 C-0.67 2.01 -0.34 1.02 0 0 Z " fill="#383833" transform="translate(466,462)"/>
<path d="M0 0 C1.5625 1.8125 1.5625 1.8125 3 4 C2.67 4.99 2.34 5.98 2 7 C-1.3 7.33 -4.6 7.66 -8 8 C-6 6 -6 6 -4 5.6875 C-3.34 5.460625 -2.68 5.23375 -2 5 C-0.70339566 2.50965614 -0.70339566 2.50965614 0 0 Z " fill="#332C17" transform="translate(519,518)"/>
<path d="M0 0 C8.28679245 0.67924528 8.28679245 0.67924528 12 3 C8.78548731 4.60725635 5.56387464 4.05748185 2 4 C2 3.34 2 2.68 2 2 C1.01 1.67 0.02 1.34 -1 1 C-0.67 0.67 -0.34 0.34 0 0 Z " fill="#DAC424" transform="translate(441,503)"/>
<path d="M0 0 C4.95 0.99 4.95 0.99 10 2 C10 2.99 10 3.98 10 5 C8.02 5 6.04 5 4 5 C3.67 4.01 3.34 3.02 3 2 C2.01 1.67 1.02 1.34 0 1 C0 0.67 0 0.34 0 0 Z " fill="#EDE24A" transform="translate(494,406)"/>
<path d="M0 0 C3.33333333 3.33333333 6.66666667 6.66666667 10 10 C9.01 10.33 8.02 10.66 7 11 C5.82439821 9.73742767 4.65977135 8.46462916 3.5 7.1875 C2.8503125 6.47980469 2.200625 5.77210938 1.53125 5.04296875 C0 3 0 3 0 0 Z " fill="#483C1D" transform="translate(421,503)"/>
<path d="M0 0 C2.97 0.495 2.97 0.495 6 1 C5.67 2.65 5.34 4.3 5 6 C4.01 6 3.02 6 2 6 C1.34 4.02 0.68 2.04 0 0 Z " fill="#25241E" transform="translate(552,451)"/>
<path d="M0 0 C2.91517292 1.07401108 4.77810176 1.77810176 7 4 C10.08347826 4.16681109 10.08347826 4.16681109 13 4 C11 6 11 6 8.1875 7 C5 7 5 7 3.49609375 5.7578125 C0 1.59437322 0 1.59437322 0 0 Z " fill="#CFBC32" transform="translate(416,445)"/>
<path d="M0 0 C2.0625 1.75 2.0625 1.75 4 4 C3.81358559 6.98263061 2.39977879 9.38707959 1 12 C0.01751476 7.9472484 -0.08159574 4.16138263 0 0 Z " fill="#7F1010" transform="translate(293,170)"/>
<path d="M0 0 C2.89227822 1.95654115 5.48169843 4.15464864 8.125 6.4375 C7.465 7.0975 6.805 7.7575 6.125 8.4375 C5.25875 7.468125 4.3925 6.49875 3.5 5.5 C0.55748951 2.52245962 -1.61038008 1.64057714 -5.875 1.4375 C-2.48106061 -0.74431818 -2.48106061 -0.74431818 0 0 Z " fill="#4F4E3D" transform="translate(505.875,460.5625)"/>
<path d="M0 0 C0.33 0 0.66 0 1 0 C2.125 7.625 2.125 7.625 1 11 C0.34 11 -0.32 11 -1 11 C-1.02688151 9.35425434 -1.04634123 7.70838587 -1.0625 6.0625 C-1.07410156 5.14597656 -1.08570313 4.22945313 -1.09765625 3.28515625 C-1 1 -1 1 0 0 Z " fill="#EED525" transform="translate(517,504)"/>
<path d="M0 0 C0.66 0 1.32 0 2 0 C1.34 3.63 0.68 7.26 0 11 C-0.99 10.67 -1.98 10.34 -3 10 C-2.01 6.7 -1.02 3.4 0 0 Z " fill="#3D371E" transform="translate(461,495)"/>
<path d="M0 0 C-0.33 1.32 -0.66 2.64 -1 4 C-3.875 3.6875 -3.875 3.6875 -7 3 C-7.66 2.01 -8.32 1.02 -9 0 C-3.375 -1.125 -3.375 -1.125 0 0 Z " fill="#EADE7F" transform="translate(488,468)"/>
<path d="M0 0 C0.66 0 1.32 0 2 0 C3 5.75 3 5.75 3 8 C2.01 7.67 1.02 7.34 0 7 C-1.1875 4.4375 -1.1875 4.4375 -2 2 C-1.34 1.34 -0.68 0.68 0 0 Z " fill="#42433C" transform="translate(459,451)"/>
<path d="M0 0 C1.875 0.5 1.875 0.5 4 2 C4.98494554 4.65177645 5.45912382 7.20547307 6 10 C4.68 9.67 3.36 9.34 2 9 C2.66 9 3.32 9 4 9 C3.34 7.88625 2.68 6.7725 2 5.625 C0 2.25 0 2.25 0 0 Z " fill="#ECE29D" transform="translate(502,420)"/>
<path d="M0 0 C2.875 0.3125 2.875 0.3125 6 1 C6.66 1.99 7.32 2.98 8 4 C7.34 4.66 6.68 5.32 6 6 C1.125 3.375 1.125 3.375 0 0 Z " fill="#384234" transform="translate(520,413)"/>
<path d="M0 0 C2.0625 0.6875 2.0625 0.6875 5.0625 2.6875 C2.4225 3.3475 -0.2175 4.0075 -2.9375 4.6875 C-3.2675 3.3675 -3.5975 2.0475 -3.9375 0.6875 C-1.9375 -0.3125 -1.9375 -0.3125 0 0 Z " fill="#464335" transform="translate(450.9375,407.3125)"/>
<path d="M0 0 C3.08117952 3.49200345 4.88889538 6.454572 6 11 C5.67 11.66 5.34 12.32 5 13 C4.15930585 11.39967863 3.32768495 9.79458829 2.5 8.1875 C1.80390625 6.84751953 1.80390625 6.84751953 1.09375 5.48046875 C0 3 0 3 0 0 Z " fill="#C7656A" transform="translate(373,355)"/>
<path d="M0 0 C0.33 0 0.66 0 1 0 C1.05422947 1.4370809 1.09289723 2.87475462 1.125 4.3125 C1.14820313 5.11300781 1.17140625 5.91351563 1.1953125 6.73828125 C1 9 1 9 -1 12 C-1.66 11.34 -2.32 10.68 -3 10 C-2.01 6.7 -1.02 3.4 0 0 Z " fill="#191B1D" transform="translate(564,506)"/>
<path d="M0 0 C-4.45462878 3.09349221 -4.45462878 3.09349221 -7.1875 2.625 C-7.785625 2.41875 -8.38375 2.2125 -9 2 C-9.99 2.495 -9.99 2.495 -11 3 C-12.67654729 2.72057545 -14.34608154 2.39171753 -16 2 C-16 1.67 -16 1.34 -16 1 C-13.8973294 0.63705686 -11.79278943 0.28493028 -9.6875 -0.0625 C-8.51574219 -0.25972656 -7.34398437 -0.45695312 -6.13671875 -0.66015625 C-3 -1 -3 -1 0 0 Z " fill="#484320" transform="translate(552,484)"/>
<path d="M0 0 C1.7074998 1.28062485 3.37373596 2.61767557 5 4 C5 4.66 5 5.32 5 6 C6.65 6 8.3 6 10 6 C10 6.33 10 6.66 10 7 C8.35 7 6.7 7 5 7 C4.67 8.32 4.34 9.64 4 11 C3.71125 10.113125 3.4225 9.22625 3.125 8.3125 C2.16851252 5.49617576 1.13201054 2.74916844 0 0 Z " fill="#514C26" transform="translate(524,480)"/>
<path d="M0 0 C0.66 0 1.32 0 2 0 C1.45276317 3.37462715 0.9451 5.08235 -1 8 C-1.66 7.34 -2.32 6.68 -3 6 C-2.63318342 3.06546739 -2.13562754 2.13562754 0 0 Z " fill="#3A3C33" transform="translate(453,440)"/>
<path d="M0 0 C3 1 3 1 4.1875 3.375 C5 6 5 6 5 9 C3.68 8.67 2.36 8.34 1 8 C0.67 5.36 0.34 2.72 0 0 Z " fill="#9F2929" transform="translate(478,393)"/>
<path d="M0 0 C0.99 0 1.98 0 3 0 C4.39195915 4.17587745 2.82323219 6.13474776 1 10 C0.67 10 0.34 10 0 10 C0 6.7 0 3.4 0 0 Z " fill="#710D0F" transform="translate(317,303)"/>
<path d="M0 0 C1.5625 1.625 1.5625 1.625 3 4 C2.6875 7.25 2.6875 7.25 2 10 C-0.46278801 7.53721199 -0.99771255 5.29323018 -2 2 C-1.34 1.34 -0.68 0.68 0 0 Z " fill="#F0DD41" transform="translate(468,485)"/>
<path d="M0 0 C0.33 0.66 0.66 1.32 1 2 C-0.20850753 5.07620099 -1.52221785 8.0444357 -3 11 C-3.66 10.34 -4.32 9.68 -5 9 C-4.73441476 5.14901402 -2.43956652 2.83304499 0 0 Z " fill="#D1BF2E" transform="translate(418,433)"/>
<path d="M0 0 C0.66 0.33 1.32 0.66 2 1 C1.46930939 4.82097239 0.50298434 7.06171403 -2 10 C-2.6875 8.375 -2.6875 8.375 -3 6 C-1.5625 2.75 -1.5625 2.75 0 0 Z " fill="#8B7207" transform="translate(532,537)"/>
<path d="M0 0 C0.66 0 1.32 0 2 0 C0.87548273 2.9719385 -0.22293791 5.33440687 -2 8 C-2.99 7.67 -3.98 7.34 -5 7 C-1.125 1.125 -1.125 1.125 0 0 Z " fill="#D1B81E" transform="translate(520,513)"/>
<path d="M0 0 C0.12375 0.639375 0.2475 1.27875 0.375 1.9375 C0.684375 2.9584375 0.684375 2.9584375 1 4 C1.66 4.33 2.32 4.66 3 5 C1.1875 6.0625 1.1875 6.0625 -1 7 C-1.99 6.67 -2.98 6.34 -4 6 C-2.68 4.02 -1.36 2.04 0 0 Z " fill="#50400B" transform="translate(432,540)"/>
<path d="M0 0 C1.32 0 2.64 0 4 0 C3.34 1.98 2.68 3.96 2 6 C1.34 5.67 0.68 5.34 0 5 C0 4.34 0 3.68 0 3 C-0.66 2.67 -1.32 2.34 -2 2 C-1.34 1.34 -0.68 0.68 0 0 Z " fill="#A78D15" transform="translate(556,519)"/>
<path d="M0 0 C0.99 0.33 1.98 0.66 3 1 C3 2.32 3 3.64 3 5 C2.34 5 1.68 5 1 5 C1 7.31 1 9.62 1 12 C0.67 12 0.34 12 0 12 C0 8.04 0 4.08 0 0 Z " fill="#CCAE19" transform="translate(558,504)"/>
<path d="M0 0 C2.475 0.495 2.475 0.495 5 1 C4.67 2.98 4.34 4.96 4 7 C2 5.75 2 5.75 0 4 C0 2.68 0 1.36 0 0 Z " fill="#CBAE16" transform="translate(398,505)"/>
<path d="M0 0 C0.66 0.66 1.32 1.32 2 2 C1.67 2.66 1.34 3.32 1 4 C1.99 4 2.98 4 4 4 C4 5.32 4 6.64 4 8 C3.01 8.33 2.02 8.66 1 9 C0.67 6.03 0.34 3.06 0 0 Z " fill="#C7AD1A" transform="translate(556,490)"/>
<path d="M0 0 C0.66 0.33 1.32 0.66 2 1 C1.67 3.31 1.34 5.62 1 8 C0.34 8 -0.32 8 -1 8 C-1.04241723 5.66705225 -1.04092937 3.33297433 -1 1 C-0.67 0.67 -0.34 0.34 0 0 Z " fill="#EAD025" transform="translate(558,463)"/>
<path d="M0 0 C-0.625 1.9375 -0.625 1.9375 -2 4 C-5.125 4.75 -5.125 4.75 -8 5 C-3.375 0 -3.375 0 0 0 Z " fill="#2B2727" transform="translate(429,421)"/>
<path d="M0 0 C1.8871875 0.061875 1.8871875 0.061875 3.8125 0.125 C2.25 1.6875 2.25 1.6875 -0.1875 3.125 C-3.9375 2.8125 -3.9375 2.8125 -7.1875 2.125 C-4.09861478 0.06574319 -3.47814073 -0.1140374 0 0 Z " fill="#4C2D2C" transform="translate(474.1875,401.875)"/>
<path d="M0 0 C0.99 0.33 1.98 0.66 3 1 C1.68 3.31 0.36 5.62 -1 8 C-1.93065133 5.39417629 -2.14917407 4.35801776 -1.0625 1.75 C-0.711875 1.1725 -0.36125 0.595 0 0 Z " fill="#C23135" transform="translate(191,395)"/>
<path d="M0 0 C0 2.31 0 4.62 0 7 C-0.99 7 -1.98 7 -3 7 C-3 5.02 -3 3.04 -3 1 C-1 0 -1 0 0 0 Z " fill="#D0B415" transform="translate(428,520)"/>
<path d="M0 0 C1.32 0.66 2.64 1.32 4 2 C1.69631264 3.06652192 -0.64018187 4.06421005 -3 5 C-3.66 4.67 -4.32 4.34 -5 4 C-3.35 2.68 -1.7 1.36 0 0 Z " fill="#2A2716" transform="translate(531,558)"/>
<path d="M0 0 C0.66 0.99 1.32 1.98 2 3 C0.02 4.32 -1.96 5.64 -4 7 C-3.43628586 3.73045798 -2.50037734 2.17424117 0 0 Z " fill="#A5890A" transform="translate(543,533)"/>
<path d="M0 0 C0.33 0.66 0.66 1.32 1 2 C1.66 2.33 2.32 2.66 3 3 C2.67 4.32 2.34 5.64 2 7 C0.68 7.33 -0.64 7.66 -2 8 C-1.34 5.36 -0.68 2.72 0 0 Z " fill="#262417" transform="translate(522,510)"/>
<path d="M0 0 C0.66 0.33 1.32 0.66 2 1 C-3.29230769 5.06153846 -3.29230769 5.06153846 -6.875 4.75 C-7.57625 4.5025 -8.2775 4.255 -9 4 C-6.06195683 2.47657021 -3.13439441 1.07229283 0 0 Z " fill="#37331F" transform="translate(446,507)"/>
<path d="M0 0 C0.99 0 1.98 0 3 0 C2.67 1.65 2.34 3.3 2 5 C0.68 4.67 -0.64 4.34 -2 4 C-1.34 2.68 -0.68 1.36 0 0 Z " fill="#F6EC87" transform="translate(448,447)"/>
<path d="M0 0 C1.65 0 3.3 0 5 0 C4.67 0.99 4.34 1.98 4 3 C2.35 3.33 0.7 3.66 -1 4 C-0.67 2.68 -0.34 1.36 0 0 Z " fill="#E6D44E" transform="translate(430,445)"/>
<path d="M0 0 C0.66 0 1.32 0 2 0 C0.125 4.75 0.125 4.75 -1 7 C-1.99 6.67 -2.98 6.34 -4 6 C-2.7260411 3.96166576 -1.38938077 1.96147874 0 0 Z " fill="#9E7F05" transform="translate(553,530)"/>
<path d="M0 0 C1.98 0 3.96 0 6 0 C5.67 0.99 5.34 1.98 5 3 C3.35 3 1.7 3 0 3 C0 2.01 0 1.02 0 0 Z " fill="#C2A617" transform="translate(512,521)"/>
<path d="M0 0 C-3.82517513 2.39073445 -7.59665524 2.55966552 -12 3 C-5.29411765 -1.47058824 -5.29411765 -1.47058824 0 0 Z " fill="#B8A21E" transform="translate(441,509)"/>
<path d="M0 0 C2.15377564 2.62198774 3.40072174 4.64404172 4 8 C1 7 1 7 -0.25 4.5625 C-1 2 -1 2 0 0 Z " fill="#2D302A" transform="translate(558,453)"/>
<path d="M0 0 C1.98 1.65 3.96 3.3 6 5 C3.66666667 5 1.33333333 5 -1 5 C-0.67 3.35 -0.34 1.7 0 0 Z " fill="#EAD639" transform="translate(541,440)"/>
</svg>
